<svg width="120" height="34" viewBox="0 0 120 34" fill="none" xmlns="http://www.w3.org/2000/svg">
<rect width="120" height="34" rx="3" fill="#454A57"/>
<path d="M7.60043 22H9.11801L10.0819 19.3477H14.0877L15.0379 22H16.5487L12.9051 11.876H11.2508L7.60043 22ZM10.4442 17.9873L12.0848 13.3457L13.6981 17.9873H10.4442ZM20.6394 22.1367C22.239 22.1367 22.8132 21.1455 23.0183 20.5166L23.1823 22H24.3034V11.5957H22.8064V15.8203C22.5261 15.3213 21.7741 14.624 20.5095 14.624C18.5544 14.624 17.6042 16.2031 17.6042 18.3496C17.6042 20.6602 18.6501 22.1367 20.6394 22.1367ZM20.9333 21.0156C19.8532 21.0156 19.0876 20.2295 19.0876 18.3359C19.0876 16.6064 19.778 15.7588 20.9401 15.7588C22.3483 15.7588 22.7722 16.9277 22.8064 17.5908V19.1357C22.7858 20.1885 22.0339 21.0156 20.9333 21.0156ZM29.0709 22.1367C30.6705 22.1367 31.2447 21.1455 31.4498 20.5166L31.6138 22H32.7349V11.5957H31.2379V15.8203C30.9576 15.3213 30.2056 14.624 28.941 14.624C26.9859 14.624 26.0357 16.2031 26.0357 18.3496C26.0357 20.6602 27.0816 22.1367 29.0709 22.1367ZM29.3648 21.0156C28.2847 21.0156 27.5191 20.2295 27.5191 18.3359C27.5191 16.6064 28.2095 15.7588 29.3717 15.7588C30.7799 15.7588 31.2037 16.9277 31.2379 17.5908V19.1357C31.2174 20.1885 30.4654 21.0156 29.3648 21.0156ZM42.222 11.7393C39.4944 11.7393 37.8812 13.6943 37.8812 16.9004C37.8812 20.0996 39.5218 22.1367 42.2835 22.1367C44.6351 22.1367 45.9271 20.7217 46.139 18.9854L44.5599 18.8965C44.3138 20.0723 43.4456 20.8652 42.2562 20.8652C40.4788 20.8652 39.5286 19.5596 39.5286 16.9209C39.5286 14.2344 40.4925 13.0176 42.1946 13.0176C43.5823 13.0176 44.3685 13.8174 44.5872 14.9727L46.1663 14.9111C45.9749 13.1338 44.4368 11.7393 42.222 11.7393ZM51.0021 22.1367C53.1008 22.1367 54.3449 20.6055 54.3449 18.418C54.3449 16.21 53.1076 14.624 51.0021 14.624C48.9308 14.624 47.6252 16.1689 47.6252 18.418C47.6252 20.6123 48.883 22.1367 51.0021 22.1367ZM51.0021 20.9883C49.6623 20.9883 49.1086 19.8057 49.1086 18.3701C49.1086 16.9346 49.676 15.7725 51.0021 15.7725C52.3215 15.7725 52.8683 16.9346 52.8683 18.3701C52.8683 19.8057 52.3283 20.9883 51.0021 20.9883ZM56.084 22H57.5811V17.2217C57.5811 16.3193 58.4151 15.8818 59.3174 15.8818C60.1856 15.8818 60.8008 16.3809 60.8008 17.4199V22H62.3047V17.2559C62.3047 15.4443 61.1221 14.6719 59.7686 14.6719C58.6133 14.6719 57.8955 15.2256 57.5469 15.8066V14.7607H56.084V22ZM64.3515 22H65.8485V17.2217C65.8485 16.3193 66.6825 15.8818 67.5849 15.8818C68.453 15.8818 69.0683 16.3809 69.0683 17.4199V22H70.5722V17.2559C70.5722 15.4443 69.3896 14.6719 68.036 14.6719C66.8808 14.6719 66.163 15.2256 65.8144 15.8066V14.7607H64.3515V22ZM73.7605 18.7256H78.826V18.2334C78.826 16.0391 77.6912 14.624 75.6199 14.624C73.4939 14.624 72.2566 16.2031 72.2566 18.459C72.2566 20.749 73.6648 22.1367 75.7156 22.1367C77.1375 22.1367 78.4636 21.3643 78.7918 19.833H77.4109C77.1375 20.626 76.5427 21.0088 75.6814 21.0088C74.4031 21.0088 73.7537 20.0312 73.7605 18.7256ZM73.7605 17.7617C73.7537 16.7637 74.3758 15.7246 75.6131 15.7246C76.823 15.7246 77.4109 16.6201 77.4109 17.7617H73.7605ZM83.5797 14.624C81.5563 14.624 80.2164 16.1826 80.2164 18.418C80.2164 20.626 81.57 22.1367 83.5797 22.1367C85.1178 22.1367 86.3073 21.2275 86.4987 19.6826H85.2272C85.0768 20.4209 84.4957 21.0293 83.6481 21.0293C82.4108 21.0293 81.6383 20.0039 81.6383 18.3906C81.6383 16.791 82.4108 15.8066 83.6276 15.8066C84.4479 15.8066 85.0153 16.333 85.2204 17.1533L86.5123 17.1396C86.3278 15.6152 85.1588 14.624 83.5797 14.624ZM91.9497 15.8408V14.7539H90.3228V12.6348H89.2358L88.8735 14.7607H87.6567V15.8408H88.8325V20.2158C88.8325 21.3779 89.2564 22.0479 90.8628 22.0479C91.4439 22.0479 91.8062 21.9863 91.9907 21.9111V20.9404H91.1499C90.5347 20.9404 90.3296 20.8721 90.3296 20.1611L90.3228 15.8408H91.9497ZM95.4388 11.8828H93.9281V13.3594H95.4388V11.8828ZM95.4047 14.7607H93.9623V22H95.4047V14.7607ZM100.644 22.1367C102.742 22.1367 103.987 20.6055 103.987 18.418C103.987 16.21 102.749 14.624 100.644 14.624C98.5725 14.624 97.2668 16.1689 97.2668 18.418C97.2668 20.6123 98.5247 22.1367 100.644 22.1367ZM100.644 20.9883C99.3039 20.9883 98.7502 19.8057 98.7502 18.3701C98.7502 16.9346 99.3176 15.7725 100.644 15.7725C101.963 15.7725 102.51 16.9346 102.51 18.3701C102.51 19.8057 101.97 20.9883 100.644 20.9883ZM105.726 22H107.223V17.2217C107.223 16.3193 108.057 15.8818 108.959 15.8818C109.827 15.8818 110.442 16.3809 110.442 17.4199V22H111.946V17.2559C111.946 15.4443 110.764 14.6719 109.41 14.6719C108.255 14.6719 107.537 15.2256 107.189 15.8066V14.7607H105.726V22Z" fill="white"/>
</svg>
