<svg width="280" height="30" viewBox="0 0 280 30" fill="none" xmlns="http://www.w3.org/2000/svg">
<path d="M66.984 18.8625H68.568L63.752 6.86255H62.12L57.304 18.8625H58.888L59.864 16.3505H66.008L66.984 18.8625ZM60.328 15.1185L62.936 8.36655L65.544 15.1185H60.328ZM75.9263 6.86255V11.9505C75.3023 11.1825 74.3903 10.7025 73.3023 10.7025C71.0463 10.7025 69.6223 12.5425 69.6223 14.8625C69.6223 17.1825 71.0463 19.0225 73.3023 19.0225C74.4223 19.0225 75.3343 18.5265 75.9743 17.7105L76.0383 18.8625H77.3023V6.86255H75.9263ZM73.5263 17.7585C71.9583 17.7585 71.0143 16.4785 71.0143 14.8625C71.0143 13.2465 71.9583 11.9505 73.5263 11.9505C74.6783 11.9505 75.6223 12.8145 75.9263 13.9985V15.7265C75.6223 16.9105 74.6783 17.7585 73.5263 17.7585ZM85.5336 6.86255V11.9505C84.9096 11.1825 83.9976 10.7025 82.9096 10.7025C80.6536 10.7025 79.2296 12.5425 79.2296 14.8625C79.2296 17.1825 80.6536 19.0225 82.9096 19.0225C84.0296 19.0225 84.9416 18.5265 85.5816 17.7105L85.6456 18.8625H86.9096V6.86255H85.5336ZM83.1336 17.7585C81.5656 17.7585 80.6216 16.4785 80.6216 14.8625C80.6216 13.2465 81.5656 11.9505 83.1336 11.9505C84.2856 11.9505 85.2296 12.8145 85.5336 13.9985V15.7265C85.2296 16.9105 84.2856 17.7585 83.1336 17.7585ZM97.5968 10.7025C96.5248 10.7025 95.6128 11.1825 95.0048 11.9185L94.9408 10.8625H93.6448V18.8625H95.0528V14.0305C95.0528 12.8785 96.0128 11.9505 97.2128 11.9505C98.3968 11.9505 99.2928 12.8145 99.2928 13.9665V18.8625H100.717V13.8065C100.717 11.9985 99.3888 10.7025 97.5968 10.7025ZM110.023 14.8625C110.023 12.4305 108.679 10.7025 106.391 10.7025C104.039 10.7025 102.583 12.4945 102.583 14.8785C102.583 17.2625 104.023 19.0225 106.391 19.0225C107.895 19.0225 108.983 18.3345 109.639 17.1505L108.647 16.4625C108.007 17.4545 107.399 17.7905 106.439 17.7905C104.951 17.7905 104.103 16.7985 103.959 15.3265H110.007C110.023 15.1665 110.023 15.0065 110.023 14.8625ZM106.423 11.9185C107.783 11.9185 108.599 12.8145 108.743 14.2225H103.991C104.199 12.8465 105.031 11.9185 106.423 11.9185ZM120.513 10.8625L118.481 17.1985L116.385 10.8625H114.993L115.809 13.2145L114.497 17.1665L112.497 10.8625H110.897L113.649 18.8625H115.185L116.465 15.0545L117.793 18.8625H119.345L122.081 10.8625H120.513ZM133.505 6.86255V11.9505C132.881 11.1825 131.969 10.7025 130.881 10.7025C128.625 10.7025 127.201 12.5425 127.201 14.8625C127.201 17.1825 128.625 19.0225 130.881 19.0225C132.001 19.0225 132.913 18.5265 133.553 17.7105L133.617 18.8625H134.881V6.86255H133.505ZM131.105 17.7585C129.537 17.7585 128.593 16.4785 128.593 14.8625C128.593 13.2465 129.537 11.9505 131.105 11.9505C132.257 11.9505 133.201 12.8145 133.505 13.9985V15.7265C133.201 16.9105 132.257 17.7585 131.105 17.7585ZM140.713 19.0225C143.033 19.0225 144.617 17.1665 144.617 14.8625C144.617 12.5425 143.033 10.7025 140.713 10.7025C138.377 10.7025 136.809 12.5425 136.809 14.8625C136.809 17.1665 138.377 19.0225 140.713 19.0225ZM140.713 17.7585C139.145 17.7585 138.201 16.4785 138.201 14.8625C138.201 13.2465 139.145 11.9505 140.713 11.9505C142.249 11.9505 143.225 13.2465 143.225 14.8625C143.225 16.4785 142.249 17.7585 140.713 17.7585ZM149.755 19.0225C150.411 19.0225 151.211 18.8465 151.819 18.3665V16.9585C151.371 17.4705 150.667 17.8225 149.899 17.8225C148.315 17.8225 147.371 16.5425 147.371 14.8625C147.371 13.1825 148.315 11.9025 149.899 11.9025C150.651 11.9025 151.355 12.2545 151.819 12.7665V11.3425C151.195 10.8625 150.411 10.7025 149.755 10.7025C147.403 10.7025 145.979 12.4785 145.979 14.8625C145.979 17.2465 147.403 19.0225 149.755 19.0225ZM159.435 10.8625V15.6945C159.435 16.8465 158.475 17.7585 157.291 17.7585C156.123 17.7585 155.195 16.8465 155.195 15.6945V10.8625H153.787V15.8385C153.787 17.5985 155.163 19.0225 156.939 19.0225C157.979 19.0225 158.891 18.5425 159.483 17.7905L159.563 18.8625H160.859V10.8625H159.435ZM172.451 10.7025C171.283 10.7025 170.291 11.2785 169.699 12.1585C169.203 11.2625 168.275 10.7025 167.139 10.7025C166.115 10.7025 165.267 11.1505 164.707 11.8385L164.643 10.8625H163.347V18.8625H164.755V13.9505C164.755 12.8465 165.651 11.9505 166.771 11.9505C167.859 11.9505 168.675 12.7825 168.675 13.8705V18.8625H170.099V13.9505C170.099 12.8465 170.963 11.9505 172.099 11.9505C173.187 11.9505 174.003 12.7825 174.003 13.8705V18.8625H175.427V13.7105C175.427 11.9665 174.179 10.7025 172.451 10.7025ZM184.74 14.8625C184.74 12.4305 183.396 10.7025 181.108 10.7025C178.756 10.7025 177.3 12.4945 177.3 14.8785C177.3 17.2625 178.74 19.0225 181.108 19.0225C182.612 19.0225 183.7 18.3345 184.356 17.1505L183.364 16.4625C182.724 17.4545 182.116 17.7905 181.156 17.7905C179.668 17.7905 178.82 16.7985 178.676 15.3265H184.724C184.74 15.1665 184.74 15.0065 184.74 14.8625ZM181.14 11.9185C182.5 11.9185 183.316 12.8145 183.46 14.2225H178.708C178.916 12.8465 179.748 11.9185 181.14 11.9185ZM190.623 10.7025C189.551 10.7025 188.639 11.1825 188.031 11.9185L187.967 10.8625H186.671V18.8625H188.079V14.0305C188.079 12.8785 189.039 11.9505 190.239 11.9505C191.423 11.9505 192.319 12.8145 192.319 13.9665V18.8625H193.743V13.8065C193.743 11.9985 192.415 10.7025 190.623 10.7025ZM199.549 17.4385C199.309 17.6945 199.037 17.8065 198.685 17.8065C198.029 17.8065 197.629 17.4065 197.629 16.6225V11.9665H199.789V10.8625H197.613V8.14255H196.205V10.8625H195.165V11.9665H196.205V16.6225C196.205 18.0465 197.165 19.0225 198.653 19.0225C199.389 19.0225 199.949 18.7985 200.333 18.3985L199.549 17.4385ZM204.611 10.7025C203.091 10.7025 202.035 11.2625 201.427 12.1425L202.403 13.0065C202.883 12.2865 203.603 11.9025 204.547 11.9025C205.635 11.9025 206.531 12.4305 206.531 13.6465V14.5905L205.075 14.3505C202.275 13.8865 201.187 15.1505 201.187 16.5745C201.187 17.9985 202.211 19.0225 203.635 19.0225C204.675 19.0225 205.731 18.4945 206.595 17.7265L206.675 18.8625H207.923V13.7425C207.923 11.6785 206.451 10.7025 204.611 10.7025ZM202.627 16.5105C202.627 15.7265 203.203 15.0385 205.219 15.4065L206.531 15.6305V16.5425C205.779 17.2305 204.883 17.7585 203.955 17.7585C203.155 17.7585 202.627 17.2625 202.627 16.5105ZM213.904 17.4385C213.664 17.6945 213.392 17.8065 213.04 17.8065C212.384 17.8065 211.984 17.4065 211.984 16.6225V11.9665H214.144V10.8625H211.968V8.14255H210.56V10.8625H209.52V11.9665H210.56V16.6225C210.56 18.0465 211.52 19.0225 213.008 19.0225C213.744 19.0225 214.304 18.7985 214.688 18.3985L213.904 17.4385ZM217.014 9.37455C217.51 9.37455 217.942 8.97455 217.942 8.46255C217.942 7.93455 217.51 7.51855 217.014 7.51855C216.502 7.51855 216.07 7.93455 216.07 8.46255C216.07 8.97455 216.502 9.37455 217.014 9.37455ZM216.294 18.8625H217.702V10.8625H216.294V18.8625ZM223.833 19.0225C226.153 19.0225 227.737 17.1665 227.737 14.8625C227.737 12.5425 226.153 10.7025 223.833 10.7025C221.497 10.7025 219.929 12.5425 219.929 14.8625C219.929 17.1665 221.497 19.0225 223.833 19.0225ZM223.833 17.7585C222.265 17.7585 221.321 16.4785 221.321 14.8625C221.321 13.2465 222.265 11.9505 223.833 11.9505C225.369 11.9505 226.345 13.2465 226.345 14.8625C226.345 16.4785 225.369 17.7585 223.833 17.7585ZM233.61 10.7025C232.538 10.7025 231.626 11.1825 231.018 11.9185L230.954 10.8625H229.658V18.8625H231.066V14.0305C231.066 12.8785 232.026 11.9505 233.226 11.9505C234.41 11.9505 235.306 12.8145 235.306 13.9665V18.8625H236.73V13.8065C236.73 11.9985 235.402 10.7025 233.61 10.7025Z" fill="black"/>
<circle cx="15" cy="15" r="15" fill="#454A57"/>
<line x1="8" y1="15" x2="22" y2="15" stroke="white" stroke-width="2" stroke-linecap="round"/>
<line x1="15" y1="22" x2="15" y2="8" stroke="white" stroke-width="2" stroke-linecap="round"/>
</svg>
