<svg width="192" height="39" viewBox="0 0 192 39" fill="none" xmlns="http://www.w3.org/2000/svg">
<path fill-rule="evenodd" clip-rule="evenodd" d="M0 5C0 2.23858 2.23858 0 5 0H187C189.761 0 192 2.23858 192 5V34C192 36.7614 189.761 39 187 39H5C2.23858 39 0 36.7614 0 34V5Z" fill="#454A57"/>
<path d="M53.8875 25H55.4051L56.3689 22.3477H60.3748L61.325 25H62.8357L59.1922 14.876H57.5379L53.8875 25ZM56.7313 20.9873L58.3719 16.3457L59.9852 20.9873H56.7313ZM68.0544 18.8408V17.7539H66.4274V15.6348H65.3405L64.9782 17.7607H63.7614V18.8408H64.9372V23.2158C64.9372 24.3779 65.361 25.0479 66.9674 25.0479C67.5485 25.0479 67.9108 24.9863 68.0954 24.9111V23.9404H67.2546C66.6393 23.9404 66.4342 23.8721 66.4342 23.1611L66.4274 18.8408H68.0544ZM73.7378 18.8408V17.7539H72.1109V15.6348H71.024L70.6617 17.7607H69.4449V18.8408H70.6206V23.2158C70.6206 24.3779 71.0445 25.0479 72.6509 25.0479C73.232 25.0479 73.5943 24.9863 73.7788 24.9111V23.9404H72.938C72.3228 23.9404 72.1177 23.8721 72.1177 23.1611L72.1109 18.8408H73.7378ZM77.6166 25.1367C78.642 25.1367 79.4896 24.7744 80.0365 23.6738L80.1527 25H81.4242V19.9414C81.4242 18.5332 80.5014 17.624 78.5326 17.624C76.7758 17.624 75.6205 18.5127 75.5453 19.8389H76.8373C77.0219 19.0596 77.7055 18.7041 78.4643 18.6973C79.3939 18.6904 79.9818 19.1621 79.9818 20.0234V20.5498L78.7992 20.5771C76.2904 20.625 75.2104 21.4111 75.2104 23.0107C75.2104 24.3574 76.2152 25.1367 77.6166 25.1367ZM78.0814 24.0977C77.2543 24.0977 76.6527 23.6396 76.6527 22.8672C76.6527 21.8418 77.5141 21.459 78.9975 21.4316L79.9818 21.418V22.6143C79.975 23.3662 78.9906 24.0977 78.0814 24.0977ZM86.6018 17.624C84.5784 17.624 83.2385 19.1826 83.2385 21.418C83.2385 23.626 84.5921 25.1367 86.6018 25.1367C88.1399 25.1367 89.3294 24.2275 89.5208 22.6826H88.2493C88.0989 23.4209 87.5178 24.0293 86.6702 24.0293C85.4329 24.0293 84.6604 23.0039 84.6604 21.3906C84.6604 19.791 85.4329 18.8066 86.6497 18.8066C87.47 18.8066 88.0374 19.333 88.2424 20.1533L89.5344 20.1396C89.3499 18.6152 88.1809 17.624 86.6018 17.624ZM91.3419 25H92.839V20.2285C92.839 19.3193 93.6593 18.8818 94.5617 18.8818C95.4298 18.8818 96.0519 19.3398 96.0519 20.1465V25H97.5558V19.8799C97.5558 18.5195 96.4347 17.6855 95.0265 17.6855C93.8712 17.6855 93.174 18.2529 92.8185 18.8203V14.5957H91.3419V25ZM103.112 25H104.643V21.2949H106.817C108.957 21.2949 110.406 20.1328 110.406 18.1094C110.406 16.0107 108.8 14.876 106.619 14.876H103.112V25ZM104.63 20.0645V16.0859H106.728C108.034 16.0859 108.964 16.7764 108.964 18.0273C108.964 19.2578 108.068 20.0645 106.783 20.0645H104.63ZM114.49 25.1367C116.589 25.1367 117.833 23.6055 117.833 21.418C117.833 19.21 116.595 17.624 114.49 17.624C112.419 17.624 111.113 19.1689 111.113 21.418C111.113 23.6123 112.371 25.1367 114.49 25.1367ZM114.49 23.9883C113.15 23.9883 112.596 22.8057 112.596 21.3701C112.596 19.9346 113.164 18.7725 114.49 18.7725C115.809 18.7725 116.356 19.9346 116.356 21.3701C116.356 22.8057 115.816 23.9883 114.49 23.9883ZM122.163 25.1367C123.735 25.1367 125.02 24.3848 125.02 22.9561C125.02 22.2588 124.658 21.3291 123.25 20.9668L121.876 20.625C121.076 20.4473 120.679 20.2012 120.679 19.7227C120.679 19.1416 121.144 18.6904 122.142 18.6904C122.901 18.6904 123.489 19.0049 123.598 19.75H124.897C124.863 18.458 123.831 17.624 122.156 17.624C120.392 17.624 119.319 18.54 119.326 19.8184C119.333 20.9258 120.105 21.5 121.301 21.7734L122.744 22.1152C123.4 22.2656 123.694 22.5459 123.694 23.0449C123.694 23.6875 123.072 24.0566 122.156 24.0566C121.397 24.0566 120.611 23.7217 120.42 22.8467H119.08C119.305 24.4053 120.638 25.1367 122.163 25.1367ZM130.553 18.8408V17.7539H128.926V15.6348H127.839L127.477 17.7607H126.26V18.8408H127.436V23.2158C127.436 24.3779 127.86 25.0479 129.466 25.0479C130.047 25.0479 130.41 24.9863 130.594 24.9111V23.9404H129.753C129.138 23.9404 128.933 23.8721 128.933 23.1611L128.926 18.8408H130.553ZM135.034 25.1367C136.606 25.1367 137.891 24.3848 137.891 22.9561C137.891 22.2588 137.529 21.3291 136.12 20.9668L134.746 20.625C133.947 20.4473 133.55 20.2012 133.55 19.7227C133.55 19.1416 134.015 18.6904 135.013 18.6904C135.772 18.6904 136.36 19.0049 136.469 19.75H137.768C137.734 18.458 136.701 17.624 135.027 17.624C133.263 17.624 132.19 18.54 132.197 19.8184C132.203 20.9258 132.976 21.5 134.172 21.7734L135.615 22.1152C136.271 22.2656 136.565 22.5459 136.565 23.0449C136.565 23.6875 135.943 24.0566 135.027 24.0566C134.268 24.0566 133.482 23.7217 133.29 22.8467H131.951C132.176 24.4053 133.509 25.1367 135.034 25.1367Z" fill="white"/>
</svg>
