<svg width="28" height="28" viewBox="0 0 28 28" fill="none" xmlns="http://www.w3.org/2000/svg">
<ellipse cx="13.807" cy="13.95" rx="13.807" ry="13.95" fill="#C89C16"/>
<path d="M3.4228 8.42735C3.79778 8.40279 4.17722 8.41172 4.55442 8.37601C4.76922 8.35576 4.98578 8.38553 5.18714 8.46297C5.38851 8.54042 5.5692 8.66345 5.71506 8.82241C6.84222 9.88931 8.00956 10.9093 9.13672 11.974C9.35662 12.1928 9.62133 12.3614 9.91262 12.4682C10.2039 12.5749 10.5149 12.6172 10.8241 12.5923C14.1364 12.4539 17.4643 12.3467 20.7878 12.2351C21.9462 12.1972 23.0488 12.3847 24.0175 13.0855C25.0754 13.8489 25.1335 14.8198 24.1492 15.6813C23.4228 16.3357 22.4939 16.721 21.5176 16.7728C21.002 16.8018 19.5624 16.8286 17.7969 16.8576L18.587 16.1255L17.5447 16.1612L16.7769 16.871L12.4669 20.8663L12.4468 20.8886C12.3803 20.9785 12.2869 21.0449 12.1802 21.0782C12.0734 21.1115 11.9589 21.11 11.8531 21.0739V21.0739C11.759 21.0445 11.6749 20.9899 11.6099 20.9158C11.545 20.8418 11.5017 20.7513 11.4848 20.6542L13.257 16.9156L13.5472 16.2974L12.7771 16.3242L12.4936 16.9223L7.71494 16.967C6.68642 16.8221 5.65068 16.7342 4.61246 16.7036C4.03883 16.6701 3.56788 16.4045 3.38039 15.9291C3.15719 15.38 3.01434 14.6814 3.46074 14.1971C4.01428 13.5944 3.94062 13.0297 3.68394 12.3735C3.30897 11.4629 2.95408 10.5433 2.61705 9.617C2.3626 8.91839 2.67062 8.48538 3.4228 8.42735Z" fill="white"/>
</svg>
