<svg width="147" height="47" viewBox="0 0 147 47" fill="none" xmlns="http://www.w3.org/2000/svg">
<rect x="0.5" y="0.5" width="146" height="33" rx="2.5" fill="white" stroke="#454A57"/>
<path d="M14.0683 22H21.0273V20.6943H15.7363V20.5234C15.7363 17.9668 20.9863 18.2881 20.9863 14.665C20.9863 12.915 19.6669 11.7393 17.5683 11.7393C15.1347 11.7393 13.8906 13.2021 13.8564 15.0068H15.3261C15.4491 13.7764 16.2763 13.0312 17.5136 13.0312C18.6689 13.0312 19.4072 13.7012 19.4072 14.6719C19.4072 17.2559 14.0683 17.085 14.0683 20.708V22ZM30.1794 11.7393C27.4518 11.7393 25.8385 13.6943 25.8385 16.9004C25.8385 20.0996 27.4792 22.1367 30.2409 22.1367C32.5924 22.1367 33.8844 20.7217 34.0963 18.9854L32.5172 18.8965C32.2712 20.0723 31.403 20.8652 30.2135 20.8652C28.4362 20.8652 27.486 19.5596 27.486 16.9209C27.486 14.2344 28.4499 13.0176 30.152 13.0176C31.5397 13.0176 32.3258 13.8174 32.5446 14.9727L34.1237 14.9111C33.9323 13.1338 32.3942 11.7393 30.1794 11.7393ZM38.9595 22.1367C41.0581 22.1367 42.3023 20.6055 42.3023 18.418C42.3023 16.21 41.065 14.624 38.9595 14.624C36.8882 14.624 35.5825 16.1689 35.5825 18.418C35.5825 20.6123 36.8404 22.1367 38.9595 22.1367ZM38.9595 20.9883C37.6197 20.9883 37.0659 19.8057 37.0659 18.3701C37.0659 16.9346 37.6333 15.7725 38.9595 15.7725C40.2788 15.7725 40.8257 16.9346 40.8257 18.3701C40.8257 19.8057 40.2857 20.9883 38.9595 20.9883ZM44.0414 22H45.5385V17.2217C45.5385 16.3193 46.3725 15.8818 47.2748 15.8818C48.143 15.8818 48.7582 16.3809 48.7582 17.4199V22H50.2621V17.2559C50.2621 15.4443 49.0795 14.6719 47.726 14.6719C46.5707 14.6719 45.8529 15.2256 45.5043 15.8066V14.7607H44.0414V22ZM52.3088 22H53.8059V17.2217C53.8059 16.3193 54.6399 15.8818 55.5422 15.8818C56.4104 15.8818 57.0256 16.3809 57.0256 17.4199V22H58.5295V17.2559C58.5295 15.4443 57.3469 14.6719 55.9934 14.6719C54.8381 14.6719 54.1204 15.2256 53.7717 15.8066V14.7607H52.3088V22ZM61.7179 18.7256H66.7833V18.2334C66.7833 16.0391 65.6486 14.624 63.5773 14.624C61.4513 14.624 60.214 16.2031 60.214 18.459C60.214 20.749 61.6222 22.1367 63.673 22.1367C65.0948 22.1367 66.421 21.3643 66.7491 19.833H65.3683C65.0948 20.626 64.5001 21.0088 63.6388 21.0088C62.3605 21.0088 61.7111 20.0312 61.7179 18.7256ZM61.7179 17.7617C61.7111 16.7637 62.3331 15.7246 63.5704 15.7246C64.7804 15.7246 65.3683 16.6201 65.3683 17.7617H61.7179ZM71.5371 14.624C69.5137 14.624 68.1738 16.1826 68.1738 18.418C68.1738 20.626 69.5273 22.1367 71.5371 22.1367C73.0752 22.1367 74.2646 21.2275 74.456 19.6826H73.1846C73.0342 20.4209 72.4531 21.0293 71.6055 21.0293C70.3682 21.0293 69.5957 20.0039 69.5957 18.3906C69.5957 16.791 70.3682 15.8066 71.585 15.8066C72.4053 15.8066 72.9726 16.333 73.1777 17.1533L74.4697 17.1396C74.2851 15.6152 73.1162 14.624 71.5371 14.624ZM79.9071 15.8408V14.7539H78.2801V12.6348H77.1932L76.8309 14.7607H75.6141V15.8408H76.7899V20.2158C76.7899 21.3779 77.2137 22.0479 78.8202 22.0479C79.4012 22.0479 79.7635 21.9863 79.9481 21.9111V20.9404H79.1073C78.4921 20.9404 78.287 20.8721 78.287 20.1611L78.2801 15.8408H79.9071ZM83.3962 11.8828H81.8855V13.3594H83.3962V11.8828ZM83.362 14.7607H81.9196V22H83.362V14.7607ZM88.6012 22.1367C90.6998 22.1367 91.9439 20.6055 91.9439 18.418C91.9439 16.21 90.7066 14.624 88.6012 14.624C86.5299 14.624 85.2242 16.1689 85.2242 18.418C85.2242 20.6123 86.482 22.1367 88.6012 22.1367ZM88.6012 20.9883C87.2613 20.9883 86.7076 19.8057 86.7076 18.3701C86.7076 16.9346 87.275 15.7725 88.6012 15.7725C89.9205 15.7725 90.4674 16.9346 90.4674 18.3701C90.4674 19.8057 89.9273 20.9883 88.6012 20.9883ZM93.6831 22H95.1801V17.2217C95.1801 16.3193 96.0141 15.8818 96.9165 15.8818C97.7846 15.8818 98.3999 16.3809 98.3999 17.4199V22H99.9038V17.2559C99.9038 15.4443 98.7211 14.6719 97.3676 14.6719C96.2124 14.6719 95.4946 15.2256 95.146 15.8066V14.7607H93.6831V22ZM104.473 22.1367C106.045 22.1367 107.33 21.3848 107.33 19.9561C107.33 19.2588 106.968 18.3291 105.56 17.9668L104.186 17.625C103.386 17.4473 102.99 17.2012 102.99 16.7227C102.99 16.1416 103.454 15.6904 104.452 15.6904C105.211 15.6904 105.799 16.0049 105.909 16.75H107.207C107.173 15.458 106.141 14.624 104.466 14.624C102.702 14.624 101.629 15.54 101.636 16.8184C101.643 17.9258 102.415 18.5 103.612 18.7734L105.054 19.1152C105.71 19.2656 106.004 19.5459 106.004 20.0449C106.004 20.6875 105.382 21.0566 104.466 21.0566C103.707 21.0566 102.921 20.7217 102.73 19.8467H101.39C101.616 21.4053 102.949 22.1367 104.473 22.1367Z" fill="#454A57"/>
<path d="M123.069 21.6441L125.036 19.6749L121.461 16.0972L119.494 18.0664L123.069 21.6441Z" fill="#454A57"/>
<path d="M123.068 21.6429L128.741 15.9648L126.773 13.9956L121.1 19.6737L123.068 21.6429Z" fill="#454A57"/>
<path d="M135.955 19.7184C138.648 19.7184 140.832 17.0905 140.832 13.8488C140.832 10.6071 138.648 7.9792 135.955 7.9792C133.262 7.9792 131.079 10.6071 131.079 13.8488C131.079 17.0905 133.262 19.7184 135.955 19.7184Z" fill="#454A57"/>
<path d="M143.697 25.5045H128.216C127.987 25.5045 127.852 25.248 127.981 25.0625C129.89 22.2807 132.753 20.5127 135.955 20.5127C139.158 20.5127 142.02 22.2807 143.929 25.0625C144.059 25.2511 143.923 25.5045 143.697 25.5045Z" fill="#454A57"/>
</svg>
