<svg width="170" height="63" viewBox="0 0 170 63" fill="none" xmlns="http://www.w3.org/2000/svg">
<rect y="26.1133" width="170" height="35.8925" rx="4" fill="#454A57"/>
<path d="M31.04 49.1133H37.6982V47.794L32.5371 47.7871V44.6494H37.0283V43.3643H32.5508V40.2881H37.5752L37.582 38.9893H31.04V49.1133ZM41.8983 49.25C43.4979 49.25 44.0721 48.2588 44.2772 47.6299L44.4413 49.1133H45.5624V38.709H44.0653V42.9336C43.785 42.4346 43.0331 41.7373 41.7684 41.7373C39.8133 41.7373 38.8632 43.3164 38.8632 45.4629C38.8632 47.7735 39.909 49.25 41.8983 49.25ZM42.1923 48.1289C41.1122 48.1289 40.3465 47.3428 40.3465 45.4492C40.3465 43.7198 41.037 42.8721 42.1991 42.8721C43.6073 42.8721 44.0311 44.041 44.0653 44.7041V46.2491C44.0448 47.3018 43.2928 48.1289 42.1923 48.1289ZM49.4138 38.9961H47.9031V40.4727H49.4138V38.9961ZM49.3796 41.8741H47.9372V49.1133H49.3796V41.8741ZM55.5963 42.9541V41.8672H53.9693V39.7481H52.8824L52.5201 41.8741H51.3033V42.9541H52.4791V47.3291C52.4791 48.4912 52.9029 49.1612 54.5094 49.1612C55.0904 49.1612 55.4527 49.0996 55.6373 49.0244V48.0537H54.7965C54.1813 48.0537 53.9762 47.9854 53.9762 47.2744L53.9693 42.9541H55.5963ZM63.4974 41.7373C61.474 41.7373 60.1341 43.2959 60.1341 45.5313C60.1341 47.7393 61.4876 49.25 63.4974 49.25C65.0355 49.25 66.2249 48.3409 66.4163 46.7959H65.1449C64.9945 47.5342 64.4134 48.1426 63.5658 48.1426C62.3285 48.1426 61.556 47.1172 61.556 45.5039C61.556 43.9043 62.3285 42.92 63.5452 42.92C64.3656 42.92 64.9329 43.4463 65.138 44.2666L66.43 44.253C66.2454 42.7285 65.0765 41.7373 63.4974 41.7373ZM71.1906 49.25C73.2893 49.25 74.5334 47.7188 74.5334 45.5313C74.5334 43.3233 73.2961 41.7373 71.1906 41.7373C69.1193 41.7373 67.8137 43.2823 67.8137 45.5313C67.8137 47.7256 69.0715 49.25 71.1906 49.25ZM71.1906 48.1016C69.8508 48.1016 69.2971 46.919 69.2971 45.4834C69.2971 44.0479 69.8645 42.8858 71.1906 42.8858C72.51 42.8858 73.0568 44.0479 73.0568 45.4834C73.0568 46.919 72.5168 48.1016 71.1906 48.1016ZM76.2725 49.1133H77.7696V44.335C77.7696 43.4326 78.6036 42.9951 79.5059 42.9951C80.3741 42.9951 80.9893 43.4942 80.9893 44.5332V49.1133H82.4932V44.3692C82.4932 42.5576 81.3106 41.7852 79.9571 41.7852C78.8018 41.7852 78.084 42.3389 77.7354 42.92V41.8741H76.2725V49.1133ZM84.54 49.1133H86.037V44.335C86.037 43.4326 86.871 42.9951 87.7734 42.9951C88.6415 42.9951 89.2568 43.4942 89.2568 44.5332V49.1133H90.7607V44.3692C90.7607 42.5576 89.5781 41.7852 88.2245 41.7852C87.0693 41.7852 86.3515 42.3389 86.0029 42.92V41.8741H84.54V49.1133ZM93.949 45.8389H99.0145V45.3467C99.0145 43.1524 97.8797 41.7373 95.8084 41.7373C93.6824 41.7373 92.4451 43.3164 92.4451 45.5723C92.4451 47.8623 93.8533 49.25 95.9041 49.25C97.326 49.25 98.6521 48.4776 98.9803 46.9463H97.5994C97.326 47.7393 96.7312 48.1221 95.8699 48.1221C94.5916 48.1221 93.9422 47.1446 93.949 45.8389ZM93.949 44.875C93.9422 43.877 94.5643 42.8379 95.8016 42.8379C97.0115 42.8379 97.5994 43.7334 97.5994 44.875H93.949ZM103.768 41.7373C101.745 41.7373 100.405 43.2959 100.405 45.5313C100.405 47.7393 101.758 49.25 103.768 49.25C105.306 49.25 106.496 48.3409 106.687 46.7959H105.416C105.265 47.5342 104.684 48.1426 103.837 48.1426C102.599 48.1426 101.827 47.1172 101.827 45.5039C101.827 43.9043 102.599 42.92 103.816 42.92C104.636 42.92 105.204 43.4463 105.409 44.2666L106.701 44.253C106.516 42.7285 105.347 41.7373 103.768 41.7373ZM112.138 42.9541V41.8672H110.511V39.7481H109.424L109.062 41.8741H107.845V42.9541H109.021V47.3291C109.021 48.4912 109.445 49.1612 111.051 49.1612C111.632 49.1612 111.995 49.0996 112.179 49.0244V48.0537H111.338C110.723 48.0537 110.518 47.9854 110.518 47.2744L110.511 42.9541H112.138ZM115.627 38.9961H114.117V40.4727H115.627V38.9961ZM115.593 41.8741H114.151V49.1133H115.593V41.8741ZM120.832 49.25C122.931 49.25 124.175 47.7188 124.175 45.5313C124.175 43.3233 122.938 41.7373 120.832 41.7373C118.761 41.7373 117.455 43.2823 117.455 45.5313C117.455 47.7256 118.713 49.25 120.832 49.25ZM120.832 48.1016C119.492 48.1016 118.939 46.919 118.939 45.4834C118.939 44.0479 119.506 42.8858 120.832 42.8858C122.152 42.8858 122.699 44.0479 122.699 45.4834C122.699 46.919 122.158 48.1016 120.832 48.1016ZM125.914 49.1133H127.411V44.335C127.411 43.4326 128.245 42.9951 129.148 42.9951C130.016 42.9951 130.631 43.4942 130.631 44.5332V49.1133H132.135V44.3692C132.135 42.5576 130.952 41.7852 129.599 41.7852C128.443 41.7852 127.726 42.3389 127.377 42.92V41.8741H125.914V49.1133ZM136.704 49.25C138.276 49.25 139.562 48.4981 139.562 47.0694C139.562 46.3721 139.199 45.4424 137.791 45.0801L136.417 44.7383C135.617 44.5606 135.221 44.3145 135.221 43.836C135.221 43.2549 135.686 42.8037 136.684 42.8037C137.442 42.8037 138.03 43.1182 138.14 43.8633H139.438C139.404 42.5713 138.372 41.7373 136.697 41.7373C134.934 41.7373 133.86 42.6534 133.867 43.9317C133.874 45.0391 134.646 45.6133 135.843 45.8867L137.285 46.2285C137.941 46.3789 138.235 46.6592 138.235 47.1582C138.235 47.8008 137.613 48.17 136.697 48.17C135.938 48.17 135.152 47.835 134.961 46.96H133.621C133.847 48.5186 135.18 49.25 136.704 49.25Z" fill="white"/>
<path d="M0.732422 13.1909H6.54492V12.2065H1.96875V12.0366C1.96875 9.70459 6.49805 9.97998 6.49805 6.86279C6.49805 5.38623 5.38477 4.396 3.64453 4.396C1.62891 4.396 0.574219 5.63232 0.544922 7.13818H1.64648C1.74023 6.06006 2.4668 5.37451 3.59766 5.37451C4.65234 5.37451 5.32617 5.97803 5.32617 6.86279C5.32617 9.20654 0.732422 9.04834 0.732422 12.1597V13.1909ZM13.3493 6.86865C11.6267 6.86865 10.5076 8.20459 10.5076 10.1206C10.5076 12.0132 11.6326 13.3081 13.3493 13.3081C14.5974 13.3081 15.6286 12.5991 15.8161 11.2749H14.8552C14.7087 11.9722 14.1521 12.4702 13.4021 12.4702C12.2712 12.4702 11.5681 11.5386 11.5681 10.0972C11.5681 8.66748 12.2712 7.76514 13.3904 7.76514C14.1111 7.76514 14.6501 8.19287 14.8435 8.96045L15.8279 8.94287C15.6462 7.64795 14.6326 6.86865 13.3493 6.86865ZM19.9508 13.3081C21.732 13.3081 22.7691 11.9956 22.7691 10.1147C22.7691 8.22217 21.732 6.86865 19.9508 6.86865C18.193 6.86865 17.1031 8.19873 17.1031 10.1147C17.1031 12.0015 18.152 13.3081 19.9508 13.3081ZM19.9508 12.4409C18.7379 12.4409 18.2047 11.4097 18.2047 10.0854C18.2047 8.76123 18.7496 7.7417 19.9508 7.7417C21.1461 7.7417 21.6734 8.76123 21.6734 10.0854C21.6734 11.4097 21.1578 12.4409 19.9508 12.4409ZM24.3608 13.1909H25.4741V9.04834C25.4741 8.21045 26.2358 7.81787 27.0796 7.81787C27.8882 7.81787 28.4448 8.2749 28.4448 9.2417V13.1909H29.5581V9.13037C29.5581 7.57764 28.5561 6.89795 27.3842 6.89795C26.3882 6.89795 25.7436 7.37256 25.4389 7.88818V6.98584H24.3608V13.1909ZM31.4134 13.1909H32.5267V9.04834C32.5267 8.21045 33.2884 7.81787 34.1322 7.81787C34.9408 7.81787 35.4974 8.2749 35.4974 9.2417V13.1909H36.6107V9.13037C36.6107 7.57764 35.6087 6.89795 34.4368 6.89795C33.4408 6.89795 32.7962 7.37256 32.4915 7.88818V6.98584H31.4134V13.1909ZM39.2687 10.3491H43.6867V9.94482C43.6867 8.05811 42.7258 6.86865 40.9855 6.86865C39.1926 6.86865 38.1555 8.19873 38.1555 10.1499C38.1555 12.1304 39.3391 13.3081 41.0676 13.3081C42.2629 13.3081 43.3527 12.6753 43.6516 11.3804H42.6086C42.3684 12.0894 41.8293 12.4526 41.0441 12.4526C39.8488 12.4526 39.2687 11.5269 39.2687 10.3491ZM39.2746 9.59912C39.2687 8.67334 39.8254 7.70654 40.9797 7.70654C42.093 7.70654 42.6262 8.53271 42.6262 9.59912H39.2746ZM47.8155 6.86865C46.0928 6.86865 44.9737 8.20459 44.9737 10.1206C44.9737 12.0132 46.0987 13.3081 47.8155 13.3081C49.0635 13.3081 50.0948 12.5991 50.2823 11.2749H49.3214C49.1749 11.9722 48.6182 12.4702 47.8682 12.4702C46.7374 12.4702 46.0342 11.5386 46.0342 10.0972C46.0342 8.66748 46.7374 7.76514 47.8565 7.76514C48.5772 7.76514 49.1163 8.19287 49.3096 8.96045L50.294 8.94287C50.1124 7.64795 49.0987 6.86865 47.8155 6.86865ZM54.8915 7.80029V6.97998H53.4911V5.18115H52.6767L52.413 6.98584H51.3759V7.80029H52.3837V11.6909C52.3837 12.687 52.7236 13.2261 54.0068 13.2261C54.4638 13.2261 54.7685 13.1792 54.9267 13.1206V12.3765H54.247C53.6669 12.3765 53.4911 12.3179 53.4911 11.6558V7.80029H54.8915ZM57.8367 4.51904H56.6941V5.67334H57.8367V4.51904ZM57.8016 6.98584H56.7352V13.1909H57.8016V6.98584ZM62.3698 13.3081C64.151 13.3081 65.1882 11.9956 65.1882 10.1147C65.1882 8.22217 64.151 6.86865 62.3698 6.86865C60.612 6.86865 59.5221 8.19873 59.5221 10.1147C59.5221 12.0015 60.571 13.3081 62.3698 13.3081ZM62.3698 12.4409C61.1569 12.4409 60.6237 11.4097 60.6237 10.0854C60.6237 8.76123 61.1686 7.7417 62.3698 7.7417C63.5651 7.7417 64.0924 8.76123 64.0924 10.0854C64.0924 11.4097 63.5768 12.4409 62.3698 12.4409ZM66.7798 13.1909H67.8931V9.04834C67.8931 8.21045 68.6548 7.81787 69.4986 7.81787C70.3072 7.81787 70.8638 8.2749 70.8638 9.2417V13.1909H71.9771V9.13037C71.9771 7.57764 70.9751 6.89795 69.8033 6.89795C68.8072 6.89795 68.1626 7.37256 67.8579 7.88818V6.98584H66.7798V13.1909ZM75.9125 13.3081C77.2191 13.3081 78.2973 12.6753 78.2973 11.4683C78.2973 10.8589 77.9867 10.0972 76.8441 9.8042L75.602 9.48779C74.9164 9.32373 74.559 9.09521 74.559 8.65576C74.559 8.1167 74.9691 7.68311 75.8949 7.68311C76.5805 7.68311 77.1078 7.97021 77.2016 8.6499H78.1801C78.1508 7.57178 77.2953 6.86865 75.9066 6.86865C74.4418 6.86865 73.5395 7.63037 73.5453 8.72021C73.5453 9.646 74.1898 10.1206 75.1918 10.3608L76.475 10.6714C77.0434 10.812 77.3012 11.0698 77.3012 11.5327C77.3012 12.1362 76.7387 12.4819 75.9066 12.4819C75.1801 12.4819 74.5062 12.1597 74.3363 11.3862H73.3285C73.5043 12.6812 74.6059 13.3081 75.9125 13.3081Z" fill="black"/>
</svg>
