<svg width="26" height="39" viewBox="0 0 26 39" fill="none" xmlns="http://www.w3.org/2000/svg">
<path d="M20.7238 3.81739C21.0921 3.4491 21.0921 2.8353 20.7238 2.4859L18.5141 0.276212C18.1647 -0.0920706 17.5509 -0.0920706 17.1826 0.276212L15.4451 2.0043L18.9863 5.54548L20.7238 3.81739ZM4 13.4588V17H7.54117L17.9853 6.54645L14.4441 3.00528L4 13.4588Z" fill="#4972F0"/>
<path d="M2.05898 31.6846H7.21328V31.2129C7.21328 29.0117 6.09219 27.624 4.06191 27.624C1.97012 27.624 0.760157 29.1758 0.760157 31.4521C0.760157 33.7627 2.14102 35.1367 4.15762 35.1367C5.55215 35.1367 6.82363 34.3984 7.17227 32.8877H5.95547C5.6752 33.7148 5.04629 34.1387 4.13027 34.1387C2.73574 34.1387 2.05898 33.0586 2.05898 31.6846ZM2.06582 30.8096C2.05898 29.7295 2.7084 28.6016 4.05508 28.6016C5.35391 28.6016 5.97598 29.5654 5.97598 30.8096H2.06582ZM11.7141 35.1367C13.3889 35.1367 13.9495 34.084 14.134 33.5166L14.2708 35H15.2551V24.5957H13.9563V28.8613C13.7102 28.4033 12.9719 27.624 11.6116 27.624C9.636 27.624 8.69948 29.2305 8.69948 31.3496C8.69948 33.667 9.73171 35.1367 11.7141 35.1367ZM11.9465 34.1455C10.7981 34.1455 9.99147 33.3115 9.99147 31.3428C9.99147 29.5654 10.7024 28.6289 11.9671 28.6289C13.5051 28.6289 13.9221 29.9346 13.9563 30.5156V32.2109C13.9426 33.2637 13.136 34.1455 11.9465 34.1455ZM19.0587 24.8828H17.7257V26.2295H19.0587V24.8828ZM19.0177 27.7607H17.7736V35H19.0177V27.7607ZM25.2002 28.7109V27.7539H23.5664V25.6553H22.6162L22.3086 27.7607H21.0986V28.7109H22.2744V33.25C22.2744 34.4121 22.6709 35.041 24.168 35.041C24.7012 35.041 25.0566 34.9863 25.2412 34.918V34.0498H24.4482C23.7715 34.0498 23.5664 33.9814 23.5664 33.209V28.7109H25.2002Z" fill="#4972F0"/>
<path d="M0.0355473 37.5908H25.9932V38.5068H0.0355473V37.5908Z" fill="#4972F0"/>
</svg>
