<svg width="46" height="39" viewBox="0 0 46 39" fill="none" xmlns="http://www.w3.org/2000/svg">
<g clip-path="url(#clip0)">
<g opacity="0.8">
<path opacity="0.8" d="M21.833 38.5172L0.480105 27.1438C-0.162477 26.5082 -0.162477 25.4783 0.480105 24.8355L21.833 13.462C22.4756 12.8265 23.517 12.8265 24.167 13.462L45.5199 24.8355C46.1625 25.471 46.1625 26.5009 45.5199 27.1438L24.167 38.5172C23.5244 39.1601 22.4756 39.1601 21.833 38.5172Z" fill="#0D60B2"/>
</g>
<g opacity="0.8">
<path opacity="0.8" d="M21.833 34.2155L0.480105 22.842C-0.162477 22.2065 -0.162477 21.1765 0.480105 20.5337L21.833 9.16023C22.4756 8.52472 23.517 8.52472 24.167 9.16023L45.5199 20.5337C46.1625 21.1692 46.1625 22.1992 45.5199 22.842L24.167 34.2155C23.5244 34.8583 22.4756 34.8583 21.833 34.2155Z" fill="#7AA9ED"/>
</g>
<g opacity="0.8">
<path opacity="0.8" d="M21.8324 25.529L0.479495 14.1555C-0.163087 13.52 -0.163087 12.49 0.479495 11.8472L21.8324 0.473705C22.475 -0.161808 23.5164 -0.161808 24.1664 0.473705L45.5193 11.8472C46.1619 12.4827 46.1619 13.5127 45.5193 14.1555L24.1664 25.529C23.5238 26.1645 22.475 26.1645 21.8324 25.529Z" fill="white"/>
</g>
</g>
<defs>
<clipPath id="clip0">
<rect width="46" height="39" fill="white"/>
</clipPath>
</defs>
</svg>
