<svg width="24" height="24" viewBox="0 0 24 24" fill="none" xmlns="http://www.w3.org/2000/svg">
<path fill-rule="evenodd" clip-rule="evenodd" d="M12.0184 0C11.9932 0.000496097 11.968 0.0017712 11.9429 0.00382338C11.7691 0.0100826 11.5987 0.0533142 11.443 0.130638C11.2873 0.207961 11.1498 0.317601 11.0397 0.452251L0.582575 9.48679C0.396984 9.6035 0.246143 9.76795 0.145824 9.96295C0.143222 9.9693 0.140674 9.97568 0.138179 9.98207C0.12505 10.0093 0.112936 10.0371 0.101862 10.0653C0.0959393 10.077 0.0902045 10.0887 0.0846602 10.1006C0.0846583 10.1019 0.0846583 10.1032 0.0846602 10.1045C0.00753543 10.3009 -0.0174855 10.5141 0.0120278 10.7231V24H8.33036V14.2101H15.6701V24H23.9884V10.7154C24.0188 10.4958 23.9891 10.2721 23.9024 10.0681C23.9011 10.0659 23.8998 10.0637 23.8986 10.0614C23.8961 10.0563 23.8935 10.0512 23.8909 10.0461C23.879 10.017 23.8659 9.98825 23.8517 9.96008C23.7558 9.77443 23.614 9.61643 23.4398 9.50114C23.4363 9.49857 23.4328 9.49602 23.4293 9.49348L12.9578 0.448428C12.7534 0.200884 12.4599 0.0436132 12.1407 0.0105175C12.1134 0.00736321 12.086 0.00513099 12.0585 0.00382455C12.0451 0.00232962 12.0318 0.00105494 12.0184 1.16716e-06V0Z" fill="white"/>
</svg>
