<svg width="106" height="39" viewBox="0 0 106 39" fill="none" xmlns="http://www.w3.org/2000/svg">
<g clip-path="url(#clip0)">
<g opacity="0.8">
<path opacity="0.8" d="M21.833 38.5172L0.480105 27.1438C-0.162477 26.5082 -0.162477 25.4783 0.480105 24.8355L21.833 13.462C22.4756 12.8265 23.517 12.8265 24.167 13.462L45.5199 24.8355C46.1625 25.471 46.1625 26.5009 45.5199 27.1438L24.167 38.5172C23.5244 39.1601 22.4756 39.1601 21.833 38.5172Z" fill="#0D60B2"/>
</g>
<g opacity="0.8">
<path opacity="0.8" d="M21.833 34.2155L0.480105 22.842C-0.162477 22.2065 -0.162477 21.1765 0.480105 20.5337L21.833 9.16023C22.4756 8.52472 23.517 8.52472 24.167 9.16023L45.5199 20.5337C46.1625 21.1692 46.1625 22.1992 45.5199 22.842L24.167 34.2155C23.5244 34.8583 22.4756 34.8583 21.833 34.2155Z" fill="#7AA9ED"/>
</g>
<g opacity="0.8">
<path opacity="0.8" d="M21.8324 25.529L0.479495 14.1555C-0.163087 13.52 -0.163087 12.49 0.479495 11.8472L21.8324 0.473705C22.475 -0.161808 23.5164 -0.161808 24.1664 0.473705L45.5193 11.8472C46.1619 12.4827 46.1619 13.5127 45.5193 14.1555L24.1664 25.529C23.5238 26.1645 22.475 26.1645 21.8324 25.529Z" fill="white"/>
</g>
</g>
<path d="M64.1291 9.30566V31H67.3371V9.30566H64.1291ZM72.4092 31H75.6173V21.6689C75.6173 19.4717 77.2579 18.0947 80.7149 18.2998C80.9053 18.3145 80.9346 18.3145 81.0372 18.373V15.2529C80.9786 15.209 80.8467 15.1943 80.7003 15.1943C78.0196 15.1943 76.2471 16.7471 75.4854 18.666V15.4873H72.4092V31ZM87.6767 9.32031H84.4394V12.4844H87.6767V9.32031ZM87.6034 15.4873H84.5126V31H87.6034V15.4873ZM98.0369 31.293C101.406 31.293 104.16 29.6816 104.16 26.6201C104.16 25.126 103.384 23.1338 100.366 22.3574L97.4217 21.625C95.7078 21.2441 94.8582 20.7168 94.8582 19.6914C94.8582 18.4463 95.8543 17.4795 97.993 17.4795C99.6189 17.4795 100.879 18.1533 101.113 19.75H103.896C103.823 16.9814 101.611 15.1943 98.0223 15.1943C94.243 15.1943 91.9432 17.1572 91.9578 19.8965C91.9725 22.2695 93.6277 23.5 96.1912 24.0859L99.282 24.8184C100.688 25.1406 101.318 25.7412 101.318 26.8105C101.318 28.1875 99.9852 28.9785 98.0223 28.9785C96.3963 28.9785 94.7117 28.2607 94.3016 26.3857H91.4305C91.9139 29.7256 94.7703 31.293 98.0369 31.293Z" fill="#C0D3ED"/>
<defs>
<clipPath id="clip0">
<rect width="46" height="39" fill="white"/>
</clipPath>
</defs>
</svg>
