<svg width="15" height="15" viewBox="0 0 15 15" fill="none" xmlns="http://www.w3.org/2000/svg">
<path d="M9.84367 5.46196C9.51082 5.12437 8.89957 4.71017 8.34667 4.59845C7.19032 4.36543 6.19792 4.65864 5.39722 5.46941C5.13487 5.73525 4.92847 6.02269 4.77637 6.32912L6.20377 7.77601C6.18532 7.35512 6.31612 7.03151 6.62752 6.71565C7.01752 6.32091 7.41712 6.20873 8.00692 6.32714C8.12062 6.35025 8.43802 6.5293 8.61352 6.7079L12.0907 10.2313C12.2668 10.4097 12.445 10.7306 12.467 10.8459C12.5843 11.4436 12.4733 11.8478 12.0827 12.2439C11.6923 12.6397 11.293 12.7522 10.7038 12.6336C10.5911 12.6108 10.2734 12.4304 10.0981 12.2523L8.67007 10.8057C8.03782 11.0647 7.33792 11.1226 6.58057 10.97C6.48487 10.9508 6.38842 10.9223 6.29227 10.8893L8.86732 13.4977C9.20077 13.8364 9.81097 14.2501 10.3645 14.3623C11.5199 14.5956 12.5117 14.3012 13.3129 13.4903C14.1131 12.6785 14.4032 11.673 14.173 10.502C14.063 9.9414 13.6543 9.32276 13.3201 8.98425L9.84367 5.46196Z" fill="#979797"/>
<path d="M1.67862 6.21481L5.15547 9.73817C5.48937 10.0759 6.10017 10.4904 6.65277 10.602C7.80882 10.835 8.80077 10.5418 9.60177 9.73011C9.86427 9.46427 10.0708 9.17714 10.2232 8.87055L8.79612 7.42443C8.81427 7.84516 8.68317 8.16831 8.37177 8.48371C7.98132 8.87937 7.58187 8.99215 6.99177 8.87329C6.87867 8.85079 6.56172 8.66991 6.38547 8.49177L2.90907 4.96811C2.73312 4.79011 2.55552 4.46848 2.53302 4.35327C2.41587 3.75591 2.52687 3.35052 2.91672 2.95547C3.30627 2.56043 3.70662 2.44795 4.29552 2.56605C4.40952 2.589 4.72662 2.76912 4.90287 2.94772L6.33327 4.38883C6.96417 4.1318 7.66287 4.07754 8.41872 4.22999C8.51472 4.24945 8.61102 4.27818 8.70762 4.31101L6.13257 1.70132C5.79897 1.36373 5.18862 0.949073 4.63407 0.836745C3.47877 0.604945 2.48622 0.898306 1.68657 1.70831C0.885868 2.5203 0.596818 3.52547 0.827218 4.69724C0.937018 5.25812 1.34547 5.87661 1.67862 6.21481Z" fill="#979797"/>
</svg>
