<svg width="29" height="29" viewBox="0 0 29 29" fill="none" xmlns="http://www.w3.org/2000/svg">
<ellipse cx="14.0035" cy="14.1036" rx="14.0035" ry="14.1036" fill="#BDDC66"/>
<path d="M20.6714 19.0484L18.0779 12.0036C18.0277 11.8781 17.9106 11.7996 17.76 11.7996H16.4716H15.7521C16.2373 11.4231 16.5553 10.8269 16.5385 10.1836C16.5051 9.11664 15.5848 8.238 14.447 8.19093C13.2088 8.14386 12.1882 9.06957 12.1882 10.2306C12.1882 10.8582 12.4893 11.4231 12.9746 11.7996H11.7197H10.95C10.8161 11.7996 10.6823 11.8781 10.6321 12.0036L8.02186 19.0484C7.9382 19.2524 8.10552 19.4721 8.33977 19.4721H20.3534C20.5877 19.4564 20.755 19.2524 20.6714 19.0484ZM14.3466 9.36768C14.8486 9.36768 15.2669 9.74424 15.2669 10.2306C15.2669 10.717 14.8486 11.0779 14.3466 11.0779C13.8446 11.0779 13.4263 10.7013 13.4263 10.2149C13.4263 9.72855 13.8446 9.36768 14.3466 9.36768Z" fill="white"/>
</svg>
