<svg width="20" height="24" viewBox="0 0 20 24" fill="none" xmlns="http://www.w3.org/2000/svg">
<path d="M7.62063 20.5715C7.56902 20.806 7.54321 21.0111 7.54321 21.2748C7.54321 22.7693 8.62708 24.0001 9.94321 24.0001C11.2593 24.0001 12.3432 22.7693 12.3432 21.2748C12.3432 21.0404 12.3174 20.806 12.2658 20.5715H7.62063Z" fill="white"/>
<path d="M19.2 18.3178C19.1746 18.1186 19.0984 17.9444 18.9714 17.7951C18.946 17.7702 16.9143 15.6049 16.9143 9.88064C16.9143 5.42564 13.8667 3.55902 11.3524 2.98659V1.6924C11.3524 0.771536 10.5651 0 9.6254 0C8.68571 0 7.87302 0.771536 7.87302 1.6924V3.01148C5.35873 3.58391 2.31111 5.42564 2.31111 9.90552C2.31111 15.6298 0.279365 17.7951 0.253968 17.7951C0.101587 17.9444 0.0253968 18.1186 0 18.3178V19.8857H19.2V18.3178Z" fill="white"/>
</svg>
