<svg width="24" height="16" viewBox="0 0 24 16" fill="none" xmlns="http://www.w3.org/2000/svg">
<path d="M13.4298 7.27958L20.7111 0H3.25635L10.4218 7.16547C11.2547 7.99832 12.6572 8.05263 13.4298 7.27958Z" fill="#99A3C0"/>
<path d="M22.4703 0.026001L14.3242 8.17253C13.7204 8.778 12.9065 9.11021 12.0324 9.11021C11.0956 9.11021 10.2067 8.73674 9.52842 8.05842L1.49979 0.02937C0.650105 0.169159 0 0.901791 0 1.79105V13.7868C0 14.7755 0.802526 15.5772 1.79116 15.5772H22.2097C23.1992 15.5772 24 14.7755 24 13.7868V1.79105C24 0.891265 23.3347 0.15358 22.4703 0.026001Z" fill="#99A3C0"/>
</svg>
