<svg width="24" height="16" viewBox="0 0 24 16" fill="none" xmlns="http://www.w3.org/2000/svg">
<path d="M13.4298 7.27958L20.7111 0H3.25635L10.4218 7.16547C11.2547 7.99832 12.6572 8.05263 13.4298 7.27958Z" fill="white"/>
<path d="M22.4703 0.0258789L14.3242 8.1724C13.7204 8.77788 12.9065 9.11009 12.0324 9.11009C11.0956 9.11009 10.2067 8.73661 9.52842 8.0583L1.49979 0.0292479C0.650105 0.169037 0 0.901669 0 1.79093V13.7867C0 14.7754 0.802526 15.577 1.79116 15.577H22.2097C23.1992 15.577 24 14.7754 24 13.7867V1.79093C24 0.891142 23.3347 0.153458 22.4703 0.0258789Z" fill="white"/>
</svg>
