<svg width="71" height="34" viewBox="0 0 71 34" fill="none" xmlns="http://www.w3.org/2000/svg">
<rect width="71" height="34" rx="3" fill="#454A57"/>
<path d="M24.1879 22.1367C26.642 22.1367 28.1527 20.9062 28.1527 19.3545C28.1527 18.2676 27.7494 16.873 25.5688 16.4219L23.6615 15.9912C22.3764 15.6836 21.9867 15.2734 21.9867 14.583C21.9867 13.5645 22.9984 12.9971 24.1469 12.9971C25.3295 12.9971 26.2934 13.4482 26.4916 14.7197L28.0092 14.6582C27.852 13.1406 26.5121 11.7529 24.14 11.7529C21.9662 11.7529 20.3598 12.9492 20.3734 14.7402C20.3871 16.1758 21.3168 16.9824 22.8549 17.3037L24.8168 17.7344C25.9174 17.9805 26.5942 18.4932 26.5942 19.3682C26.5942 20.3525 25.5483 20.9199 24.1811 20.9199C22.9301 20.9199 21.8774 20.3525 21.6313 19.2656L20.0658 19.334C20.3188 21.2002 22.2123 22.1367 24.1879 22.1367ZM32.093 22.1367C33.1184 22.1367 33.9661 21.7744 34.513 20.6738L34.6292 22H35.9007V16.9414C35.9007 15.5332 34.9778 14.624 33.0091 14.624C31.2522 14.624 30.097 15.5127 30.0218 16.8389H31.3137C31.4983 16.0596 32.1819 15.7041 32.9407 15.6973C33.8704 15.6904 34.4583 16.1621 34.4583 17.0234V17.5498L33.2757 17.5771C30.7669 17.625 29.6868 18.4111 29.6868 20.0107C29.6868 21.3574 30.6917 22.1367 32.093 22.1367ZM32.5579 21.0977C31.7307 21.0977 31.1292 20.6396 31.1292 19.8672C31.1292 18.8418 31.9905 18.459 33.4739 18.4316L34.4583 18.418V19.6143C34.4514 20.3662 33.4671 21.0977 32.5579 21.0977ZM43.7033 14.7607H42.3156L40.4835 20.1064H40.3742L38.549 14.7607H37.1613L39.7999 22H41.0646L43.7033 14.7607ZM45.9482 18.7256H51.0137V18.2334C51.0137 16.0391 49.8789 14.624 47.8076 14.624C45.6816 14.624 44.4443 16.2031 44.4443 18.459C44.4443 20.749 45.8525 22.1367 47.9033 22.1367C49.3252 22.1367 50.6514 21.3643 50.9795 19.833H49.5986C49.3252 20.626 48.7305 21.0088 47.8691 21.0088C46.5908 21.0088 45.9414 20.0312 45.9482 18.7256ZM45.9482 17.7617C45.9414 16.7637 46.5635 15.7246 47.8008 15.7246C49.0107 15.7246 49.5986 16.6201 49.5986 17.7617H45.9482Z" fill="white"/>
</svg>
