<svg width="30" height="30" viewBox="0 0 30 30" fill="none" xmlns="http://www.w3.org/2000/svg">
<ellipse cx="14.8936" cy="15" rx="14.8936" ry="15" fill="#8963F8"/>
<path d="M21.9554 13.0919C21.6417 12.7187 19.916 10.5286 18.3211 12.3453C16.7261 14.1621 16.1509 14.8342 15.5756 14.436C15.5404 14.411 15.5065 14.3892 15.4754 14.3711C15.3717 14.181 15.2221 14.0158 15.0411 13.8904C15.3267 13.4922 15.8057 12.853 16.1112 12.5954C16.5704 12.2089 20.8791 8.62606 18.8042 6.69282C16.7301 4.75958 12.1836 7.45322 11.8011 7.76284C11.4183 8.07246 9.16975 9.7788 11.1243 11.2421C13.0802 12.7054 13.8029 13.2334 13.4011 13.7925C13.3774 13.8255 13.3574 13.8562 13.3407 13.8853C13.2297 13.9608 13.1304 14.0505 13.0455 14.1532C12.6421 13.8946 11.8805 13.3856 11.5887 13.0719C11.1829 12.6348 7.41873 8.53348 5.38768 10.5086C3.35662 12.4827 6.18575 16.8102 6.51104 17.1742C6.83612 17.5391 8.62979 19.6793 10.1673 17.8176C11.7047 15.957 12.2592 15.2691 12.8458 15.6506C12.8773 15.6713 12.9066 15.6895 12.9347 15.7043C12.9965 15.8056 13.0718 15.8991 13.1585 15.9819C12.9034 16.3224 12.2801 17.1336 11.912 17.4254C11.4414 17.7988 7.02269 21.258 9.0358 23.2489C11.0489 25.24 15.6769 22.6763 16.069 22.3777C16.4614 22.0793 18.7623 20.4367 16.8539 18.9183C14.9576 17.4103 14.2484 16.8597 14.6502 16.3161C14.9021 16.2359 15.1236 16.0904 15.2924 15.901C15.6761 16.1627 16.4604 16.7163 16.7524 17.0488C17.1445 17.4966 20.7789 21.7028 22.8705 19.7865C24.9623 17.8705 22.2692 13.4654 21.9554 13.0919ZM14.1866 15.5419C13.8761 15.5419 13.6251 15.3017 13.6251 15.0071C13.6251 14.7113 13.8761 14.4715 14.1866 14.4715C14.4971 14.4715 14.7495 14.7113 14.7495 15.0071C14.7495 15.3019 14.4971 15.5419 14.1866 15.5419Z" fill="white"/>
</svg>
