<svg width="124" height="18" viewBox="0 0 124 18" fill="none" xmlns="http://www.w3.org/2000/svg">
<path d="M32.1542 3.87598H30.8895L27.7928 12.5234L24.7645 3.87598H23.4862L27.0067 14H28.5721L32.1542 3.87598ZM34.1052 10.6846H39.2595V10.2129C39.2595 8.01172 38.1384 6.62402 36.1081 6.62402C34.0163 6.62402 32.8064 8.17578 32.8064 10.4521C32.8064 12.7627 34.1872 14.1367 36.2038 14.1367C37.5984 14.1367 38.8699 13.3984 39.2185 11.8877H38.0017C37.7214 12.7148 37.0925 13.1387 36.1765 13.1387C34.782 13.1387 34.1052 12.0586 34.1052 10.6846ZM34.112 9.80957C34.1052 8.72949 34.7546 7.60156 36.1013 7.60156C37.4001 7.60156 38.0222 8.56543 38.0222 9.80957H34.112ZM41.1764 14H42.4752V9.50195C42.4752 8.42871 43.3092 7.80664 44.8541 7.88867C44.9566 7.89551 44.9635 7.89551 45.0182 7.92285V6.6582C44.984 6.63086 44.9156 6.62402 44.8473 6.62402C43.61 6.62402 42.776 7.30762 42.4137 8.15527V6.76074H41.1764V14ZM49.1635 14.1367C50.688 14.1367 51.9458 13.3984 51.9458 11.9902C51.9458 11.2793 51.5835 10.3906 50.2505 10.0488L48.8012 9.67969C48.0014 9.48828 47.5844 9.22168 47.5844 8.70898C47.5844 8.08008 48.063 7.57422 49.143 7.57422C49.9428 7.57422 50.5581 7.90918 50.6674 8.70215H51.809C51.7749 7.44434 50.7768 6.62402 49.1567 6.62402C47.4477 6.62402 46.395 7.5127 46.4018 8.78418C46.4018 9.86426 47.1538 10.418 48.3227 10.6982L49.8198 11.0605C50.4829 11.2246 50.7837 11.5254 50.7837 12.0654C50.7837 12.7695 50.1274 13.1729 49.1567 13.1729C48.309 13.1729 47.5229 12.7969 47.3247 11.8945H46.1489C46.354 13.4053 47.6391 14.1367 49.1635 14.1367ZM55.3118 3.88281H53.9788V5.22949H55.3118V3.88281ZM55.2708 6.76074H54.0267V14H55.2708V6.76074ZM60.5852 14.1367C62.6633 14.1367 63.8732 12.6055 63.8732 10.4111C63.8732 8.20312 62.6633 6.62402 60.5852 6.62402C58.5344 6.62402 57.2629 8.17578 57.2629 10.4111C57.2629 12.6123 58.4865 14.1367 60.5852 14.1367ZM60.5852 13.125C59.1701 13.125 58.548 11.9219 58.548 10.377C58.548 8.83203 59.1838 7.64258 60.5852 7.64258C61.9797 7.64258 62.5949 8.83203 62.5949 10.377C62.5949 11.9219 61.9934 13.125 60.5852 13.125ZM65.7149 14H67.0137V9.16699C67.0137 8.18945 67.9024 7.73145 68.8868 7.73145C69.8301 7.73145 70.4796 8.26465 70.4796 9.39258V14H71.7784V9.2627C71.7784 7.45117 70.6094 6.6582 69.2423 6.6582C68.0801 6.6582 67.3282 7.21191 66.9727 7.81348V6.76074H65.7149V14ZM83.5145 9.33105V14H84.8133V3.87598H83.5145V8.18945H78.7908V3.87598H77.4988V14H78.7908V9.33105H83.5145ZM88.7741 3.88281H87.4411V5.22949H88.7741V3.88281ZM88.7331 6.76074H87.4889V14H88.7331V6.76074ZM93.7056 14.1367C95.23 14.1367 96.4878 13.3984 96.4878 11.9902C96.4878 11.2793 96.1255 10.3906 94.7925 10.0488L93.3433 9.67969C92.5435 9.48828 92.1265 9.22168 92.1265 8.70898C92.1265 8.08008 92.605 7.57422 93.6851 7.57422C94.4849 7.57422 95.1001 7.90918 95.2095 8.70215H96.3511C96.3169 7.44434 95.3189 6.62402 93.6988 6.62402C91.9898 6.62402 90.937 7.5127 90.9439 8.78418C90.9439 9.86426 91.6958 10.418 92.8648 10.6982L94.3618 11.0605C95.0249 11.2246 95.3257 11.5254 95.3257 12.0654C95.3257 12.7695 94.6695 13.1729 93.6988 13.1729C92.8511 13.1729 92.065 12.7969 91.8667 11.8945H90.6909C90.896 13.4053 92.1812 14.1367 93.7056 14.1367ZM101.925 7.71094V6.75391H100.291V4.65527H99.3412L99.0336 6.76074H97.8236V7.71094H98.9994V12.25C98.9994 13.4121 99.3959 14.041 100.893 14.041C101.426 14.041 101.782 13.9863 101.966 13.918V13.0498H101.173C100.496 13.0498 100.291 12.9814 100.291 12.209V7.71094H101.925ZM106.658 14.1367C108.737 14.1367 109.947 12.6055 109.947 10.4111C109.947 8.20312 108.737 6.62402 106.658 6.62402C104.608 6.62402 103.336 8.17578 103.336 10.4111C103.336 12.6123 104.56 14.1367 106.658 14.1367ZM106.658 13.125C105.243 13.125 104.621 11.9219 104.621 10.377C104.621 8.83203 105.257 7.64258 106.658 7.64258C108.053 7.64258 108.668 8.83203 108.668 10.377C108.668 11.9219 108.067 13.125 106.658 13.125ZM111.788 14H113.087V9.50195C113.087 8.42871 113.921 7.80664 115.466 7.88867C115.568 7.89551 115.575 7.89551 115.63 7.92285V6.6582C115.596 6.63086 115.527 6.62402 115.459 6.62402C114.222 6.62402 113.388 7.30762 113.026 8.15527V6.76074H111.788V14ZM118.306 16.3105C119.304 16.3105 120.062 15.9277 120.623 14.5469L123.672 6.76074H122.407L120.288 12.3457L118.148 6.76074H116.843L119.666 13.8291L119.42 14.5127C119.27 14.8682 119.01 15.3398 117.93 15.3057L117.191 15.292V16.1328C117.191 16.1328 117.458 16.3105 118.306 16.3105Z" fill="#4972F0"/>
<path d="M23.2811 16.5908H124V17.5068H23.2811V16.5908Z" fill="#4972F0"/>
<path d="M8.1 4.73684V9.57789L12.339 12.2211L13.05 11.0084L9.45 8.76316V4.73684H8.1ZM9.45 0C6.273 0 3.519 1.81895 2.043 4.51895L0 2.36842V8.52632H5.85L3.375 5.92105C4.464 3.53368 6.75 1.89474 9.45 1.89474C11.2402 1.89474 12.9571 2.64332 14.223 3.97582C15.4888 5.30832 16.2 7.11557 16.2 9C16.2 10.8844 15.4888 12.6917 14.223 14.0242C12.9571 15.3567 11.2402 16.1053 9.45 16.1053C6.507 16.1053 4.023 14.1253 3.096 11.3684H1.206C2.196 15.1863 5.499 18 9.45 18C14.166 18 18 13.9737 18 9C18 7.8181 17.7788 6.64778 17.3492 5.55585C16.9195 4.46392 16.2897 3.47177 15.4958 2.63604C14.7018 1.80031 13.7593 1.13738 12.7219 0.685084C11.6846 0.232792 10.5728 0 9.45 0Z" fill="#4972F0"/>
</svg>
