<svg width="1137" height="103" viewBox="0 0 1137 103" fill="none" xmlns="http://www.w3.org/2000/svg">
<path d="M1121 1.41L1119.59 0L1114 5.59L1108.41 0L1107 1.41L1112.59 7L1107 12.59L1108.41 14L1114 8.41L1119.59 14L1121 12.59L1115.41 7L1121 1.41Z" fill="#686B6F"/>
<path d="M30.5537 14H32.0713L33.0352 11.3477H37.041L37.9912 14H39.502L35.8584 3.87598H34.2041L30.5537 14ZM33.3975 9.9873L35.0381 5.3457L36.6514 9.9873H33.3975ZM44.7206 7.84082V6.75391H43.0936V4.63477H42.0067L41.6444 6.76074H40.4276V7.84082H41.6034V12.2158C41.6034 13.3779 42.0272 14.0479 43.6337 14.0479C44.2147 14.0479 44.577 13.9863 44.7616 13.9111V12.9404H43.9208C43.3055 12.9404 43.1005 12.8721 43.1005 12.1611L43.0936 7.84082H44.7206ZM50.404 7.84082V6.75391H48.7771V4.63477H47.6902L47.3279 6.76074H46.1111V7.84082H47.2868V12.2158C47.2868 13.3779 47.7107 14.0479 49.3171 14.0479C49.8982 14.0479 50.2605 13.9863 50.4451 13.9111V12.9404H49.6042C48.989 12.9404 48.7839 12.8721 48.7839 12.1611L48.7771 7.84082H50.404ZM54.2828 14.1367C55.3082 14.1367 56.1559 13.7744 56.7027 12.6738L56.8189 14H58.0904V8.94141C58.0904 7.5332 57.1676 6.62402 55.1988 6.62402C53.442 6.62402 52.2867 7.5127 52.2115 8.83887H53.5035C53.6881 8.05957 54.3717 7.7041 55.1305 7.69727C56.0602 7.69043 56.648 8.16211 56.648 9.02344V9.5498L55.4654 9.57715C52.9566 9.625 51.8766 10.4111 51.8766 12.0107C51.8766 13.3574 52.8814 14.1367 54.2828 14.1367ZM54.7477 13.0977C53.9205 13.0977 53.3189 12.6396 53.3189 11.8672C53.3189 10.8418 54.1803 10.459 55.6637 10.4316L56.648 10.418V11.6143C56.6412 12.3662 55.6568 13.0977 54.7477 13.0977ZM63.268 6.62402C61.2446 6.62402 59.9048 8.18262 59.9048 10.418C59.9048 12.626 61.2583 14.1367 63.268 14.1367C64.8061 14.1367 65.9956 13.2275 66.187 11.6826H64.9155C64.7651 12.4209 64.184 13.0293 63.3364 13.0293C62.0991 13.0293 61.3266 12.0039 61.3266 10.3906C61.3266 8.79102 62.0991 7.80664 63.3159 7.80664C64.1362 7.80664 64.7036 8.33301 64.9087 9.15332L66.2007 9.13965C66.0161 7.61523 64.8471 6.62402 63.268 6.62402ZM68.0081 14H69.5052V9.22852C69.5052 8.31934 70.3255 7.88184 71.2279 7.88184C72.096 7.88184 72.7181 8.33984 72.7181 9.14648V14H74.222V8.87988C74.222 7.51953 73.1009 6.68555 71.6927 6.68555C70.5374 6.68555 69.8402 7.25293 69.4847 7.82031V3.5957H68.0081V14ZM79.7784 14H81.3096V10.2949H83.4835C85.6231 10.2949 87.0723 9.13281 87.0723 7.10938C87.0723 5.01074 85.4659 3.87598 83.2852 3.87598H79.7784V14ZM81.296 9.06445V5.08594H83.3946C84.7003 5.08594 85.6299 5.77637 85.6299 7.02734C85.6299 8.25781 84.7344 9.06445 83.4493 9.06445H81.296ZM91.1562 14.1367C93.2548 14.1367 94.499 12.6055 94.499 10.418C94.499 8.20996 93.2617 6.62402 91.1562 6.62402C89.0849 6.62402 87.7792 8.16895 87.7792 10.418C87.7792 12.6123 89.037 14.1367 91.1562 14.1367ZM91.1562 12.9883C89.8163 12.9883 89.2626 11.8057 89.2626 10.3701C89.2626 8.93457 89.83 7.77246 91.1562 7.77246C92.4755 7.77246 93.0224 8.93457 93.0224 10.3701C93.0224 11.8057 92.4824 12.9883 91.1562 12.9883ZM98.8289 14.1367C100.401 14.1367 101.686 13.3848 101.686 11.9561C101.686 11.2588 101.324 10.3291 99.9158 9.9668L98.5418 9.625C97.742 9.44727 97.3455 9.20117 97.3455 8.72266C97.3455 8.1416 97.8103 7.69043 98.8084 7.69043C99.5672 7.69043 100.155 8.00488 100.264 8.75H101.563C101.529 7.45801 100.497 6.62402 98.8221 6.62402C97.0584 6.62402 95.9852 7.54004 95.992 8.81836C95.9988 9.92578 96.7713 10.5 97.9676 10.7734L99.41 11.1152C100.066 11.2656 100.36 11.5459 100.36 12.0449C100.36 12.6875 99.7381 13.0566 98.8221 13.0566C98.0633 13.0566 97.2771 12.7217 97.0857 11.8467H95.7459C95.9715 13.4053 97.3045 14.1367 98.8289 14.1367ZM107.219 7.84082V6.75391H105.592V4.63477H104.506L104.143 6.76074H102.926V7.84082H104.102V12.2158C104.102 13.3779 104.526 14.0479 106.132 14.0479C106.714 14.0479 107.076 13.9863 107.26 13.9111V12.9404H106.42C105.804 12.9404 105.599 12.8721 105.599 12.1611L105.592 7.84082H107.219ZM111.7 14.1367C113.272 14.1367 114.557 13.3848 114.557 11.9561C114.557 11.2588 114.195 10.3291 112.787 9.9668L111.413 9.625C110.613 9.44727 110.216 9.20117 110.216 8.72266C110.216 8.1416 110.681 7.69043 111.679 7.69043C112.438 7.69043 113.026 8.00488 113.135 8.75H114.434C114.4 7.45801 113.368 6.62402 111.693 6.62402C109.929 6.62402 108.856 7.54004 108.863 8.81836C108.87 9.92578 109.642 10.5 110.838 10.7734L112.281 11.1152C112.937 11.2656 113.231 11.5459 113.231 12.0449C113.231 12.6875 112.609 13.0566 111.693 13.0566C110.934 13.0566 110.148 12.7217 109.957 11.8467H108.617C108.842 13.4053 110.175 14.1367 111.7 14.1367Z" fill="black"/>
<path d="M31.624 96H37.504V90.176H40.864C46.156 90.176 49.46 87.376 49.46 83.064C49.46 78.752 46.184 75.952 40.92 75.952H31.624V96ZM37.504 85.92V80.208H40.248C42.236 80.208 43.552 81.328 43.552 83.064C43.552 84.8 42.236 85.92 40.248 85.92H37.504ZM58.8201 96.364C63.7761 96.364 66.9681 93.508 66.9681 88.776C66.9681 84.072 63.7761 81.188 58.8201 81.188C53.8081 81.188 50.6441 84.044 50.6441 88.776C50.6441 93.48 53.8361 96.364 58.8201 96.364ZM58.8201 91.968C57.0841 91.968 55.9081 90.652 55.9081 88.776C55.9081 86.9 57.0841 85.584 58.8201 85.584C60.5281 85.584 61.7321 86.9 61.7321 88.776C61.7321 90.652 60.5281 91.968 58.8201 91.968ZM75.7608 96.476C80.3528 96.476 83.1808 94.516 83.1808 91.296C83.1808 87.88 79.8768 87.236 77.2448 86.956C75.3128 86.732 73.6048 86.676 73.6048 85.584C73.6048 84.8 74.4448 84.268 75.6208 84.268C76.9648 84.268 77.9168 84.94 77.9448 85.948H82.5928C82.5928 82.98 79.6248 81.104 75.6208 81.104C71.5048 81.104 68.7888 83.008 68.7888 86.06C68.7888 90.064 72.6248 90.288 75.2288 90.54C76.7408 90.68 77.9728 90.848 77.9728 91.884C77.9728 92.752 77.1048 93.284 75.8728 93.284C74.2208 93.284 73.1568 92.472 73.1568 91.24H68.7048C68.7048 94.488 71.4208 96.476 75.7608 96.476ZM91.7348 96.364C92.6308 96.364 93.9748 96.196 94.8988 95.86V92.22C94.4508 92.332 93.8908 92.416 93.4988 92.416C92.4628 92.416 91.7908 91.66 91.7908 90.54V85.276H94.8148V81.552H91.7908V77.044H87.6748L86.7228 81.552H84.6788V85.276H86.5268V90.792C86.5268 94.124 88.5708 96.364 91.7348 96.364ZM103.895 96.476C108.487 96.476 111.315 94.516 111.315 91.296C111.315 87.88 108.011 87.236 105.379 86.956C103.447 86.732 101.739 86.676 101.739 85.584C101.739 84.8 102.579 84.268 103.755 84.268C105.099 84.268 106.051 84.94 106.079 85.948H110.727C110.727 82.98 107.759 81.104 103.755 81.104C99.6392 81.104 96.9232 83.008 96.9232 86.06C96.9232 90.064 100.759 90.288 103.363 90.54C104.875 90.68 106.107 90.848 106.107 91.884C106.107 92.752 105.239 93.284 104.007 93.284C102.355 93.284 101.291 92.472 101.291 91.24H96.8392C96.8392 94.488 99.5552 96.476 103.895 96.476ZM128.5 96.364C133.456 96.364 136.648 93.508 136.648 88.776C136.648 84.072 133.456 81.188 128.5 81.188C123.488 81.188 120.324 84.044 120.324 88.776C120.324 93.48 123.516 96.364 128.5 96.364ZM128.5 91.968C126.764 91.968 125.588 90.652 125.588 88.776C125.588 86.9 126.764 85.584 128.5 85.584C130.208 85.584 131.412 86.9 131.412 88.776C131.412 90.652 130.208 91.968 128.5 91.968ZM138.945 96H144.181V88.048C144.181 86.62 145.133 85.612 146.365 85.612C147.597 85.612 148.381 86.564 148.381 87.964V96H153.617V86.984C153.617 83.652 151.517 81.216 148.521 81.216C146.813 81.216 145.609 82 144.461 83.68H144.181V81.552H138.945V96ZM173.266 96.42C178.866 96.42 182.674 93.06 182.674 87.768V75.952H176.766V87.572C176.766 89.98 175.366 91.576 173.266 91.576C171.138 91.576 169.766 90.008 169.766 87.572V75.952H163.858V87.768C163.858 93.06 167.666 96.42 173.266 96.42ZM185.822 96H191.058V88.048C191.058 86.62 192.01 85.612 193.242 85.612C194.474 85.612 195.258 86.564 195.258 87.964V96H200.494V86.984C200.494 83.652 198.394 81.216 195.398 81.216C193.69 81.216 192.486 82 191.338 83.68H191.058V81.552H185.822V96ZM205.94 79.984C207.704 79.984 208.936 78.78 208.936 77.1C208.936 75.42 207.704 74.244 205.94 74.244C204.232 74.244 202.972 75.42 202.972 77.1C202.972 78.78 204.232 79.984 205.94 79.984ZM203.336 96H208.572V81.552H203.336V96ZM212.753 96H217.989V85.276H221.013V81.552H217.989V80.6C217.989 79.732 218.661 79.144 219.697 79.144C220.117 79.144 220.593 79.228 221.013 79.312V75.252C220.061 74.944 218.913 74.748 217.849 74.748C214.797 74.748 212.753 77.072 212.753 80.544V81.552H210.905V85.276H212.753V96ZM230.58 96.364C235.536 96.364 238.728 93.508 238.728 88.776C238.728 84.072 235.536 81.188 230.58 81.188C225.568 81.188 222.404 84.044 222.404 88.776C222.404 93.48 225.596 96.364 230.58 96.364ZM230.58 91.968C228.844 91.968 227.668 90.652 227.668 88.776C227.668 86.9 228.844 85.584 230.58 85.584C232.288 85.584 233.492 86.9 233.492 88.776C233.492 90.652 232.288 91.968 230.58 91.968ZM241.024 96H246.26V88.832C246.26 86.956 247.38 85.696 248.976 85.696C249.648 85.696 250.656 85.92 251.496 86.284V81.636C251.048 81.412 250.46 81.272 249.9 81.272C248.444 81.272 247.156 82.168 246.54 83.596H246.232V81.552H241.024V96ZM253.642 96H258.878V87.992C258.878 86.536 259.634 85.584 260.866 85.584C262.042 85.584 262.826 86.536 262.826 87.992V96H268.09V87.992C268.09 86.564 268.902 85.584 270.162 85.584C271.45 85.64 272.234 86.676 272.234 87.992V96H277.498V86.816C277.498 83.484 275.314 81.216 272.29 81.216C270.218 81.216 268.65 82.252 267.894 83.96H267.614C266.914 82.308 265.178 81.188 263.33 81.188C261.51 81.188 259.998 82.252 259.158 83.876H258.85V81.552H253.642V96ZM287.855 96H293.567V83.988H293.847L298.103 96H302.667L306.923 83.96H307.203V96H312.915V75.952H304.963L300.511 88.944H300.231L295.667 75.952H287.855V96ZM320.303 96.336C322.179 96.336 323.915 95.636 324.727 94.292H325.007V96H330.271V86.508C330.271 83.26 327.443 81.188 323.159 81.188C318.847 81.188 316.075 83.26 316.075 86.48H321.143C321.143 85.248 321.955 84.52 323.103 84.52C324.307 84.52 325.007 85.248 325.007 86.312V86.956L322.487 87.264C317.755 87.908 315.487 89.392 315.487 92.192C315.487 94.824 317.447 96.336 320.303 96.336ZM322.347 93.172C321.199 93.172 320.527 92.584 320.527 91.688C320.527 90.848 321.143 90.26 322.683 90.064L325.007 89.728V90.596C325.007 92.08 323.915 93.172 322.347 93.172ZM333.016 96H338.252V88.832C338.252 86.956 339.372 85.696 340.968 85.696C341.64 85.696 342.648 85.92 343.488 86.284V81.636C343.04 81.412 342.452 81.272 341.892 81.272C340.436 81.272 339.148 82.168 338.532 83.596H338.224V81.552H333.016V96ZM353.03 102.804C357.93 102.804 360.982 100.284 360.982 95.916V81.552H355.942V83.344H355.662C354.598 81.972 353.226 81.216 351.238 81.216C347.458 81.216 344.882 83.988 344.882 88.776C344.882 93.284 347.486 96.112 351.266 96.112C353.086 96.112 354.402 95.44 355.466 94.236H355.746V95.72C355.746 97.568 354.598 98.8 352.778 98.8C351.378 98.8 350.314 98.044 349.978 96.812L344.938 97.512C345.47 100.928 348.494 102.804 353.03 102.804ZM353.058 91.912C351.35 91.912 350.146 90.596 350.146 88.776C350.146 86.928 351.35 85.584 353.058 85.584C354.738 85.584 355.97 86.928 355.97 88.776C355.97 90.596 354.738 91.912 353.058 91.912ZM366.6 79.984C368.364 79.984 369.596 78.78 369.596 77.1C369.596 75.42 368.364 74.244 366.6 74.244C364.892 74.244 363.632 75.42 363.632 77.1C363.632 78.78 364.892 79.984 366.6 79.984ZM363.996 96H369.232V81.552H363.996V96ZM372.237 96H377.473V88.048C377.473 86.62 378.425 85.612 379.657 85.612C380.889 85.612 381.673 86.564 381.673 87.964V96H386.909V86.984C386.909 83.652 384.809 81.216 381.813 81.216C380.105 81.216 378.901 82 377.753 83.68H377.473V81.552H372.237V96ZM404.487 96.364C409.443 96.364 412.635 93.508 412.635 88.776C412.635 84.072 409.443 81.188 404.487 81.188C399.475 81.188 396.311 84.044 396.311 88.776C396.311 93.48 399.503 96.364 404.487 96.364ZM404.487 91.968C402.751 91.968 401.575 90.652 401.575 88.776C401.575 86.9 402.751 85.584 404.487 85.584C406.195 85.584 407.399 86.9 407.399 88.776C407.399 90.652 406.195 91.968 404.487 91.968ZM415.943 96H421.179V85.276H424.203V81.552H421.179V80.6C421.179 79.732 421.851 79.144 422.887 79.144C423.307 79.144 423.783 79.228 424.203 79.312V75.252C423.251 74.944 422.103 74.748 421.039 74.748C417.987 74.748 415.943 77.072 415.943 80.544V81.552H414.095V85.276H415.943V96ZM434.078 96H449.786V91.352H439.79V87.796H448.974V83.96H439.79V80.6H449.506V75.952H434.078V96ZM452.293 96H457.529V88.832C457.529 86.956 458.649 85.696 460.245 85.696C460.917 85.696 461.925 85.92 462.765 86.284V81.636C462.317 81.412 461.729 81.272 461.169 81.272C459.713 81.272 458.425 82.168 457.809 83.596H457.501V81.552H452.293V96ZM464.911 96H470.147V88.832C470.147 86.956 471.267 85.696 472.863 85.696C473.535 85.696 474.543 85.92 475.383 86.284V81.636C474.935 81.412 474.347 81.272 473.787 81.272C472.331 81.272 471.043 82.168 470.427 83.596H470.119V81.552H464.911V96ZM484.925 96.364C489.881 96.364 493.073 93.508 493.073 88.776C493.073 84.072 489.881 81.188 484.925 81.188C479.913 81.188 476.749 84.044 476.749 88.776C476.749 93.48 479.941 96.364 484.925 96.364ZM484.925 91.968C483.189 91.968 482.013 90.652 482.013 88.776C482.013 86.9 483.189 85.584 484.925 85.584C486.633 85.584 487.837 86.9 487.837 88.776C487.837 90.652 486.633 91.968 484.925 91.968ZM495.37 96H500.606V88.832C500.606 86.956 501.726 85.696 503.322 85.696C503.994 85.696 505.002 85.92 505.842 86.284V81.636C505.394 81.412 504.806 81.272 504.246 81.272C502.79 81.272 501.502 82.168 500.886 83.596H500.578V81.552H495.37V96Z" fill="black"/>
<line y1="41.5" x2="1137" y2="41.5" stroke="#797979"/>
<path d="M956.152 99H966.357V96.9102H958.867V96.7051C958.867 93.2773 966.328 93.7461 966.328 88.5898C966.328 86.0508 964.395 84.3418 961.309 84.3418C957.725 84.3418 955.908 86.4707 955.869 89.1172H958.232C958.418 87.3789 959.57 86.4023 961.221 86.4023C962.783 86.4023 963.77 87.3105 963.77 88.6094C963.77 92.0957 956.152 91.8711 956.152 97.0273V99ZM968.461 99H971.205V96.1973H968.461V99ZM979.304 84.2637C975.574 84.2637 973.426 87.2324 973.426 91.9395C973.426 96.3633 975.623 99.0781 979.168 99.0781C982.342 99.0781 984.451 97.0566 984.451 94.1953C984.451 91.4414 982.508 89.6934 979.597 89.6934C978.093 89.6934 976.736 90.4551 976.121 91.6367C975.867 88.2578 977.058 86.2266 979.353 86.2266C980.73 86.2266 981.668 86.959 982.039 88.2383H984.285C984.06 85.7285 981.873 84.2637 979.304 84.2637ZM979.099 91.5684C980.779 91.5684 981.863 92.5449 981.863 94.3125C981.863 96.0312 980.662 97.2031 979.109 97.2031C977.42 97.2031 976.287 95.8652 976.306 93.8047C976.306 92.6621 977.703 91.5684 979.099 91.5684ZM986.515 99H989.259V96.1973H986.515V99ZM994.117 99H996.597V84.5371H994.937C994.83 85.748 993.96 86.4121 991.431 86.4121V87.8574H994.117V99ZM1016.1 99L1013.34 92.7207C1014.71 92.1152 1016.01 91.0117 1016.01 88.6875C1016.01 86.1875 1014.47 84.5371 1011.16 84.5371H1005.28V99H1007.71V93.1309H1011.08L1013.56 99H1016.1ZM1010.6 91.207H1007.71V86.4414H1010.91C1012.48 86.4414 1013.53 87.2812 1013.53 88.7852C1013.53 90.2988 1012.43 91.207 1010.6 91.207ZM1018.44 99H1021.19V96.1973H1018.44V99ZM1029.92 99.1953C1033.45 99.1953 1035.69 97.4277 1035.69 95.1621C1035.69 93.6289 1035.18 91.5391 1031.89 90.8848L1029.23 90.3086C1027.49 89.8984 1026.97 89.3516 1026.97 88.4238C1026.97 87.1152 1028.26 86.334 1029.88 86.334C1031.51 86.334 1032.79 86.959 1033.05 88.6582L1035.52 88.5801C1035.28 86.3828 1033.26 84.3613 1029.85 84.3613C1026.71 84.3613 1024.35 86.0703 1024.37 88.6875C1024.39 90.8066 1025.74 92.0078 1027.95 92.4473L1030.66 93.0332C1032.18 93.3555 1033.18 93.9902 1033.18 95.1816C1033.18 96.5195 1031.74 97.252 1029.91 97.252C1028.19 97.252 1026.79 96.4707 1026.47 95.0156L1023.93 95.0938C1024.27 97.8574 1027.07 99.1953 1029.92 99.1953ZM1038.65 84.5371L1038.64 99H1047.64V96.8906H1041.11V84.5371H1038.65ZM1056.12 99.1953C1059.65 99.1953 1061.89 97.4277 1061.89 95.1621C1061.89 93.6289 1061.38 91.5391 1058.08 90.8848L1055.43 90.3086C1053.69 89.8984 1053.17 89.3516 1053.17 88.4238C1053.17 87.1152 1054.46 86.334 1056.08 86.334C1057.71 86.334 1058.99 86.959 1059.25 88.6582L1061.72 88.5801C1061.48 86.3828 1059.46 84.3613 1056.05 84.3613C1052.91 84.3613 1050.55 86.0703 1050.57 88.6875C1050.58 90.8066 1051.94 92.0078 1054.15 92.4473L1056.86 93.0332C1058.38 93.3555 1059.38 93.9902 1059.38 95.1816C1059.38 96.5195 1057.94 97.252 1056.11 97.252C1054.39 97.252 1052.99 96.4707 1052.66 95.0156L1050.13 95.0938C1050.47 97.8574 1053.27 99.1953 1056.12 99.1953ZM1072.35 99.7715H1064.06V101.588L1072.35 101.578V99.7715ZM1080.01 84.332C1076.7 84.332 1074.62 86.9492 1074.62 91.8223C1074.62 96.6465 1076.65 99.1758 1080 99.1758C1083.34 99.1758 1085.37 96.6367 1085.37 91.8027C1085.37 86.9395 1083.31 84.332 1080.01 84.332ZM1080.01 97.1836C1078.12 97.1836 1077.17 95.6309 1077.17 91.8125C1077.17 87.916 1078.13 86.3047 1080 86.3047C1081.85 86.3047 1082.79 87.8965 1082.79 91.8125C1082.79 95.6504 1081.89 97.1836 1080.01 97.1836ZM1092.6 84.332C1089.29 84.332 1087.21 86.9492 1087.21 91.8223C1087.21 96.6465 1089.24 99.1758 1092.59 99.1758C1095.93 99.1758 1097.96 96.6367 1097.96 91.8027C1097.96 86.9395 1095.9 84.332 1092.6 84.332ZM1092.6 97.1836C1090.71 97.1836 1089.77 95.6309 1089.77 91.8125C1089.77 87.916 1090.72 86.3047 1092.59 86.3047C1094.44 86.3047 1095.38 87.8965 1095.38 91.8125C1095.38 95.6504 1094.48 97.1836 1092.6 97.1836ZM1106.51 84.5371L1099.85 93.502V95.5723H1106.58L1106.57 99H1108.93V95.5723H1111.23V93.502H1108.93V84.5371H1106.51ZM1102.12 93.502L1106.57 87.5645V93.502H1102.12ZM1115.75 99H1118.23V84.5371H1116.57C1116.46 85.748 1115.59 86.4121 1113.06 86.4121V87.8574H1115.75V99Z" fill="#979797"/>
</svg>
