<svg width="569" height="766" viewBox="0 0 569 766" fill="none" xmlns="http://www.w3.org/2000/svg">
<g filter="url(#filter0_d)">
<rect x="15" y="11" width="539" height="736" rx="4" fill="white"/>
</g>
<path d="M46.596 129H54.772C61.66 129 66.252 124.996 66.252 118.976C66.252 112.956 61.66 108.952 54.772 108.952H46.596V129ZM52.308 124.548V113.404H54.772C58.132 113.404 60.344 115.588 60.344 118.976C60.344 122.364 58.132 124.548 54.772 124.548H52.308ZM69.1398 129H74.8518V116.988H75.1318L79.3878 129H83.9518L88.2078 116.96H88.4878V129H94.1998V108.952H86.2478L81.7958 121.944H81.5158L76.9518 108.952H69.1398V129ZM97.8632 129H103.575V116.988H103.855L108.111 129H112.675L116.931 116.96H117.211V129H122.923V108.952H114.971L110.519 121.944H110.239L105.675 108.952H97.8632V129ZM125.719 122.42H137.199V118.22H125.719V122.42ZM150.106 129.42C155.594 129.42 159.85 126.256 160.354 121.608L154.866 120.964C154.39 123.064 152.43 124.576 150.246 124.576C147.222 124.576 145.122 122.336 145.094 118.976C145.094 115.616 147.194 113.376 150.274 113.376C152.486 113.376 154.39 114.916 154.838 117.044L160.326 116.456C159.71 111.752 155.482 108.56 150.106 108.56C143.778 108.56 139.186 112.76 139.186 118.976C139.186 125.192 143.778 129.42 150.106 129.42ZM171.68 129.42C177.28 129.42 180.948 126.844 180.948 122.868C180.948 118.024 176.328 117.296 172.912 116.792C170.588 116.456 168.6 116.204 168.6 114.692C168.6 113.572 169.72 112.788 171.596 112.788C173.612 112.788 174.928 113.796 174.928 115.56H180.276C180.276 111.416 176.72 108.56 171.4 108.56C166.108 108.56 162.692 111.136 162.692 115.112C162.692 120.264 167.9 120.684 171.344 121.16C173.388 121.44 175.04 121.776 175.04 123.232C175.04 124.464 173.808 125.164 171.904 125.164C169.496 125.164 168.124 124.072 168.096 122.392H162.552C162.552 126.536 166.192 129.42 171.68 129.42ZM183.882 129H199.59V124.352H189.594V120.796H198.778V116.96H189.594V113.6H199.31V108.952H183.882V129ZM201.593 122.42H213.073V118.22H201.593V122.42ZM224.58 129.42C230.096 129.42 233.988 125.192 233.988 118.976C233.988 112.76 230.096 108.56 224.58 108.56C219.064 108.56 215.144 112.76 215.144 118.976C215.144 125.192 219.064 129.42 224.58 129.42ZM224.58 124.38C222.48 124.38 221.08 122.28 221.08 118.976C221.08 115.672 222.48 113.572 224.58 113.572C226.652 113.572 228.08 115.672 228.08 118.976C228.08 122.28 226.652 124.38 224.58 124.38ZM245.03 129H250.966V124.968H253.206V120.74H250.966V108.952H242.734L235.65 121.916V124.968H245.03V129ZM240.942 120.74L244.75 113.516H245.03V120.74H240.942ZM263.372 129.42C268.16 129.42 271.604 126.62 271.604 122.728C271.604 119.648 269.42 117.072 266.452 116.456L270.792 112.256V108.952H256.372V113.208H264.016V113.488L260.572 116.792L261.748 119.872C262.112 119.676 262.756 119.536 263.316 119.536C264.912 119.536 266.088 120.684 266.088 122.252C266.088 123.792 264.94 124.968 263.316 124.968C261.636 124.968 260.348 123.568 260.348 121.692H255.028C255.196 126.144 258.696 129.42 263.372 129.42ZM277.958 129H283.67V108.952H278.714L273.17 113.096V118.64L277.678 115.336H277.958V129ZM286.448 122.42H297.928V118.22H286.448V122.42ZM309.436 129.42C314.952 129.42 318.844 125.192 318.844 118.976C318.844 112.76 314.952 108.56 309.436 108.56C303.92 108.56 300 112.76 300 118.976C300 125.192 303.92 129.42 309.436 129.42ZM309.436 124.38C307.336 124.38 305.936 122.28 305.936 118.976C305.936 115.672 307.336 113.572 309.436 113.572C311.508 113.572 312.936 115.672 312.936 118.976C312.936 122.28 311.508 124.38 309.436 124.38ZM325.574 129H331.286V108.952H326.33L320.786 113.096V118.64L325.294 115.336H325.574V129ZM342.191 129H348.099V122.392H349.527L354.511 129H361.091L355.183 121.944L355.407 121.888C358.319 121.356 360.447 119.06 360.447 115.784C360.447 111.696 357.199 108.952 352.299 108.952H342.191V129ZM348.099 118.556V113.208H351.263C353.139 113.208 354.539 114.216 354.539 115.868C354.539 117.548 353.139 118.556 351.263 118.556H348.099ZM371.85 129.42C377.45 129.42 381.118 126.844 381.118 122.868C381.118 118.024 376.498 117.296 373.082 116.792C370.758 116.456 368.77 116.204 368.77 114.692C368.77 113.572 369.89 112.788 371.766 112.788C373.782 112.788 375.098 113.796 375.098 115.56H380.446C380.446 111.416 376.89 108.56 371.57 108.56C366.278 108.56 362.862 111.136 362.862 115.112C362.862 120.264 368.07 120.684 371.514 121.16C373.558 121.44 375.21 121.776 375.21 123.232C375.21 124.464 373.978 125.164 372.074 125.164C369.666 125.164 368.294 124.072 368.266 122.392H362.722C362.722 126.536 366.362 129.42 371.85 129.42ZM383.183 122.42H394.663V118.22H383.183V122.42ZM396.735 129H412.219V124.744H404.659V124.464L408.943 121.048C411.155 119.284 412.751 117.464 412.751 115C412.723 111.248 409.475 108.56 405.023 108.56C400.095 108.56 396.623 111.948 396.819 116.624H401.971C402.027 114.468 403.259 113.18 404.911 113.18C406.367 113.18 407.403 114.16 407.403 115.532C407.403 116.736 406.451 117.548 405.079 118.724L396.735 125.64V129ZM422.39 129.42C427.15 129.42 430.622 126.564 430.622 122.504C430.622 118.752 427.794 116.008 423.706 116.008H420.29L420.514 113.208H429.166V108.952H416.37L415.558 119.676H421.886C423.846 119.676 425.106 120.656 425.106 122.28C425.106 123.764 423.986 124.968 422.334 124.968C420.654 124.968 419.394 123.568 419.394 121.888H414.046C414.214 126.256 417.714 129.42 422.39 129.42ZM56.732 158.42C62.22 158.42 66.476 155.256 66.98 150.608L61.492 149.964C61.016 152.064 59.056 153.576 56.872 153.576C53.848 153.576 51.748 151.336 51.72 147.976C51.72 144.616 53.82 142.376 56.9 142.376C59.112 142.376 61.016 143.916 61.464 146.044L66.952 145.456C66.336 140.752 62.108 137.56 56.732 137.56C50.404 137.56 45.812 141.76 45.812 147.976C45.812 154.192 50.404 158.42 56.732 158.42ZM78.306 158.42C83.906 158.42 87.574 155.844 87.574 151.868C87.574 147.024 82.954 146.296 79.538 145.792C77.214 145.456 75.226 145.204 75.226 143.692C75.226 142.572 76.346 141.788 78.222 141.788C80.238 141.788 81.554 142.796 81.554 144.56H86.902C86.902 140.416 83.346 137.56 78.026 137.56C72.734 137.56 69.318 140.136 69.318 144.112C69.318 149.264 74.526 149.684 77.97 150.16C80.014 150.44 81.666 150.776 81.666 152.232C81.666 153.464 80.434 154.164 78.53 154.164C76.122 154.164 74.75 153.072 74.722 151.392H69.178C69.178 155.536 72.818 158.42 78.306 158.42ZM90.5077 158H106.216V153.352H96.2197V149.796H105.404V145.96H96.2197V142.6H105.936V137.952H90.5077V158ZM116.373 158H122.253V152.176H125.613C130.905 152.176 134.209 149.376 134.209 145.064C134.209 140.752 130.933 137.952 125.669 137.952H116.373V158ZM122.253 147.92V142.208H124.997C126.985 142.208 128.301 143.328 128.301 145.064C128.301 146.8 126.985 147.92 124.997 147.92H122.253ZM143.513 158.364C147.209 158.364 150.177 156.712 150.905 153.996L146.397 153.184C145.949 154.108 145.053 154.752 143.793 154.752C142.225 154.752 141.161 153.772 140.825 152.204H151.381C151.437 151.924 151.465 151.196 151.465 150.776C151.465 146.156 148.329 143.188 143.569 143.188C138.781 143.188 135.421 146.128 135.421 150.72C135.421 155.368 138.725 158.364 143.513 158.364ZM140.769 149.404C141.049 147.808 142.001 146.8 143.457 146.8C144.941 146.8 146.033 147.976 146.173 149.404H140.769ZM153.768 158H159.004V150.832C159.004 148.956 160.124 147.696 161.72 147.696C162.392 147.696 163.4 147.92 164.24 148.284V143.636C163.792 143.412 163.204 143.272 162.644 143.272C161.188 143.272 159.9 144.168 159.284 145.596H158.976V143.552H153.768V158ZM167.753 158H172.989V147.276H176.013V143.552H172.989V142.6C172.989 141.732 173.661 141.144 174.697 141.144C175.117 141.144 175.593 141.228 176.013 141.312V137.252C175.061 136.944 173.913 136.748 172.849 136.748C169.797 136.748 167.753 139.072 167.753 142.544V143.552H165.905V147.276H167.753V158ZM185.58 158.364C190.536 158.364 193.728 155.508 193.728 150.776C193.728 146.072 190.536 143.188 185.58 143.188C180.568 143.188 177.404 146.044 177.404 150.776C177.404 155.48 180.596 158.364 185.58 158.364ZM185.58 153.968C183.844 153.968 182.668 152.652 182.668 150.776C182.668 148.9 183.844 147.584 185.58 147.584C187.288 147.584 188.492 148.9 188.492 150.776C188.492 152.652 187.288 153.968 185.58 153.968ZM196.024 158H201.26V150.832C201.26 148.956 202.38 147.696 203.976 147.696C204.648 147.696 205.656 147.92 206.496 148.284V143.636C206.048 143.412 205.46 143.272 204.9 143.272C203.444 143.272 202.156 144.168 201.54 145.596H201.232V143.552H196.024V158ZM208.642 158H213.878V149.992C213.878 148.536 214.634 147.584 215.866 147.584C217.042 147.584 217.826 148.536 217.826 149.992V158H223.09V149.992C223.09 148.564 223.902 147.584 225.162 147.584C226.45 147.64 227.234 148.676 227.234 149.992V158H232.498V148.816C232.498 145.484 230.314 143.216 227.29 143.216C225.218 143.216 223.65 144.252 222.894 145.96H222.614C221.914 144.308 220.178 143.188 218.33 143.188C216.51 143.188 214.998 144.252 214.158 145.876H213.85V143.552H208.642V158ZM239.321 158.336C241.197 158.336 242.933 157.636 243.745 156.292H244.025V158H249.289V148.508C249.289 145.26 246.461 143.188 242.177 143.188C237.865 143.188 235.093 145.26 235.093 148.48H240.161C240.161 147.248 240.973 146.52 242.121 146.52C243.325 146.52 244.025 147.248 244.025 148.312V148.956L241.505 149.264C236.773 149.908 234.505 151.392 234.505 154.192C234.505 156.824 236.465 158.336 239.321 158.336ZM241.365 155.172C240.217 155.172 239.545 154.584 239.545 153.688C239.545 152.848 240.161 152.26 241.701 152.064L244.025 151.728V152.596C244.025 154.08 242.933 155.172 241.365 155.172ZM252.034 158H257.27V150.048C257.27 148.62 258.222 147.612 259.454 147.612C260.686 147.612 261.47 148.564 261.47 149.964V158H266.706V148.984C266.706 145.652 264.606 143.216 261.61 143.216C259.902 143.216 258.698 144 257.55 145.68H257.27V143.552H252.034V158ZM276.913 158.364C281.029 158.364 284.053 156.208 284.529 152.596L279.685 152.008C279.405 153.268 278.285 154.164 276.969 154.164C275.317 154.164 274.113 152.764 274.113 150.776C274.113 148.788 275.345 147.388 276.997 147.388C278.257 147.388 279.405 148.284 279.685 149.572L284.529 148.956C284.081 145.344 281.057 143.188 276.913 143.188C272.097 143.188 268.877 146.128 268.877 150.776C268.877 155.368 272.181 158.364 276.913 158.364ZM294.563 158.364C298.259 158.364 301.227 156.712 301.955 153.996L297.447 153.184C296.999 154.108 296.103 154.752 294.843 154.752C293.275 154.752 292.211 153.772 291.875 152.204H302.431C302.487 151.924 302.515 151.196 302.515 150.776C302.515 146.156 299.379 143.188 294.619 143.188C289.831 143.188 286.471 146.128 286.471 150.72C286.471 155.368 289.775 158.364 294.563 158.364ZM291.819 149.404C292.099 147.808 293.051 146.8 294.507 146.8C295.991 146.8 297.083 147.976 297.223 149.404H291.819ZM312.441 158H318.153V145.988H318.433L322.689 158H327.253L331.509 145.96H331.789V158H337.501V137.952H329.549L325.097 150.944H324.817L320.253 137.952H312.441V158ZM348.36 158.364C353.316 158.364 356.508 155.508 356.508 150.776C356.508 146.072 353.316 143.188 348.36 143.188C343.348 143.188 340.184 146.044 340.184 150.776C340.184 155.48 343.376 158.364 348.36 158.364ZM348.36 153.968C346.624 153.968 345.448 152.652 345.448 150.776C345.448 148.9 346.624 147.584 348.36 147.584C350.068 147.584 351.272 148.9 351.272 150.776C351.272 152.652 350.068 153.968 348.36 153.968ZM364.82 158.364C366.696 158.364 368.04 157.636 368.992 156.32H369.272V158H374.508V137.112H369.272V145.232H368.992C368.04 143.916 366.64 143.188 364.792 143.188C361.012 143.188 358.408 146.184 358.408 150.776C358.408 155.424 360.984 158.364 364.82 158.364ZM366.584 153.968C364.876 153.968 363.672 152.596 363.672 150.776C363.672 148.956 364.876 147.584 366.584 147.584C368.264 147.584 369.496 148.956 369.496 150.776C369.496 152.596 368.264 153.968 366.584 153.968ZM384.915 158.364C388.611 158.364 391.579 156.712 392.307 153.996L387.799 153.184C387.351 154.108 386.455 154.752 385.195 154.752C383.627 154.752 382.563 153.772 382.227 152.204H392.783C392.839 151.924 392.867 151.196 392.867 150.776C392.867 146.156 389.731 143.188 384.971 143.188C380.183 143.188 376.823 146.128 376.823 150.72C376.823 155.368 380.127 158.364 384.915 158.364ZM382.171 149.404C382.451 147.808 383.403 146.8 384.859 146.8C386.343 146.8 387.435 147.976 387.575 149.404H382.171ZM395.17 158H400.406V137.112H395.17V158ZM409.973 151.42H425.933V147.22H409.973V151.42ZM46.624 187H52.504V181.176H55.864C61.156 181.176 64.46 178.376 64.46 174.064C64.46 169.752 61.184 166.952 55.92 166.952H46.624V187ZM52.504 176.92V171.208H55.248C57.236 171.208 58.552 172.328 58.552 174.064C58.552 175.8 57.236 176.92 55.248 176.92H52.504ZM73.8201 187.364C78.7761 187.364 81.9681 184.508 81.9681 179.776C81.9681 175.072 78.7761 172.188 73.8201 172.188C68.8081 172.188 65.6441 175.044 65.6441 179.776C65.6441 184.48 68.8361 187.364 73.8201 187.364ZM73.8201 182.968C72.0841 182.968 70.9081 181.652 70.9081 179.776C70.9081 177.9 72.0841 176.584 73.8201 176.584C75.5281 176.584 76.7321 177.9 76.7321 179.776C76.7321 181.652 75.5281 182.968 73.8201 182.968ZM86.7713 187H93.4633L95.2273 178.712H95.5073L97.2433 187H103.907L107.995 172.552H102.787L100.519 181.848H100.239L97.7193 172.552H92.9593L90.6913 181.708H90.4113L88.1153 172.552H82.7393L86.7713 187ZM116.883 187.364C120.579 187.364 123.547 185.712 124.275 182.996L119.767 182.184C119.319 183.108 118.423 183.752 117.163 183.752C115.595 183.752 114.531 182.772 114.195 181.204H124.751C124.807 180.924 124.835 180.196 124.835 179.776C124.835 175.156 121.699 172.188 116.939 172.188C112.151 172.188 108.791 175.128 108.791 179.72C108.791 184.368 112.095 187.364 116.883 187.364ZM114.139 178.404C114.419 176.808 115.371 175.8 116.827 175.8C118.311 175.8 119.403 176.976 119.543 178.404H114.139ZM127.137 187H132.373V179.832C132.373 177.956 133.493 176.696 135.089 176.696C135.761 176.696 136.769 176.92 137.609 177.284V172.636C137.161 172.412 136.573 172.272 136.013 172.272C134.557 172.272 133.269 173.168 132.653 174.596H132.345V172.552H127.137V187ZM147.378 187H161.938V181.96H153.286V166.952H147.378V187ZM171.757 187.364C175.453 187.364 178.421 185.712 179.149 182.996L174.641 182.184C174.193 183.108 173.297 183.752 172.037 183.752C170.469 183.752 169.405 182.772 169.069 181.204H179.625C179.681 180.924 179.709 180.196 179.709 179.776C179.709 175.156 176.573 172.188 171.813 172.188C167.025 172.188 163.665 175.128 163.665 179.72C163.665 184.368 166.969 187.364 171.757 187.364ZM169.013 178.404C169.293 176.808 170.245 175.8 171.701 175.8C173.185 175.8 174.277 176.976 174.417 178.404H169.013ZM184.968 187H192.612L197.372 172.552H191.8L188.916 182.66H188.636L185.752 172.552H180.208L184.968 187ZM205.962 187.364C209.658 187.364 212.626 185.712 213.354 182.996L208.846 182.184C208.398 183.108 207.502 183.752 206.242 183.752C204.674 183.752 203.61 182.772 203.274 181.204H213.83C213.886 180.924 213.914 180.196 213.914 179.776C213.914 175.156 210.778 172.188 206.018 172.188C201.23 172.188 197.87 175.128 197.87 179.72C197.87 184.368 201.174 187.364 205.962 187.364ZM203.218 178.404C203.498 176.808 204.45 175.8 205.906 175.8C207.39 175.8 208.482 176.976 208.622 178.404H203.218ZM216.216 187H221.452V166.112H216.216V187ZM236.956 187H242.864V171.796H249.136V166.952H230.684V171.796H236.956V187ZM252.635 187.336C254.511 187.336 256.247 186.636 257.059 185.292H257.339V187H262.603V177.508C262.603 174.26 259.775 172.188 255.491 172.188C251.179 172.188 248.407 174.26 248.407 177.48H253.475C253.475 176.248 254.287 175.52 255.435 175.52C256.639 175.52 257.339 176.248 257.339 177.312V177.956L254.819 178.264C250.087 178.908 247.819 180.392 247.819 183.192C247.819 185.824 249.779 187.336 252.635 187.336ZM254.679 184.172C253.531 184.172 252.859 183.584 252.859 182.688C252.859 181.848 253.475 181.26 255.015 181.064L257.339 180.728V181.596C257.339 183.08 256.247 184.172 254.679 184.172ZM272.908 193.804C277.808 193.804 280.86 191.284 280.86 186.916V172.552H275.82V174.344H275.54C274.476 172.972 273.104 172.216 271.116 172.216C267.336 172.216 264.76 174.988 264.76 179.776C264.76 184.284 267.364 187.112 271.144 187.112C272.964 187.112 274.28 186.44 275.344 185.236H275.624V186.72C275.624 188.568 274.476 189.8 272.656 189.8C271.256 189.8 270.192 189.044 269.856 187.812L264.816 188.512C265.348 191.928 268.372 193.804 272.908 193.804ZM272.936 182.912C271.228 182.912 270.024 181.596 270.024 179.776C270.024 177.928 271.228 176.584 272.936 176.584C274.616 176.584 275.848 177.928 275.848 179.776C275.848 181.596 274.616 182.912 272.936 182.912ZM290.287 187.476C294.879 187.476 297.707 185.516 297.707 182.296C297.707 178.88 294.403 178.236 291.771 177.956C289.839 177.732 288.131 177.676 288.131 176.584C288.131 175.8 288.971 175.268 290.147 175.268C291.491 175.268 292.443 175.94 292.471 176.948H297.119C297.119 173.98 294.151 172.104 290.147 172.104C286.031 172.104 283.315 174.008 283.315 177.06C283.315 181.064 287.151 181.288 289.755 181.54C291.267 181.68 292.499 181.848 292.499 182.884C292.499 183.752 291.631 184.284 290.399 184.284C288.747 184.284 287.683 183.472 287.683 182.24H283.231C283.231 185.488 285.947 187.476 290.287 187.476Z" fill="black"/>
<path d="M15 325H554V743C554 745.209 552.209 747 550 747H19C16.7909 747 15 745.209 15 743V325Z" fill="#F7F7F7"/>
<line x1="15" y1="460.5" x2="554" y2="460.5" stroke="#C4C4C4"/>
<line x1="15" y1="391.5" x2="554" y2="391.5" stroke="#C4C4C4"/>
<path d="M54.9175 368.16C57.6695 368.16 59.8295 366.384 59.8295 364.128V356H57.4135V363.696C57.4135 365.008 56.3095 366.048 54.9175 366.048C53.5255 366.048 52.4215 365.008 52.4215 363.696V356H50.0055V364.128C50.0055 366.384 52.1655 368.16 54.9175 368.16ZM65.2217 368.16C67.1737 368.16 68.4217 367.184 68.4217 365.6C68.4217 364.032 67.0777 363.504 65.8777 363.136C64.9337 362.832 64.0857 362.64 64.0857 362.096C64.0857 361.632 64.7737 361.456 65.4457 361.536C66.0537 361.6 66.8537 361.888 67.2857 362.208L68.3737 360.704C67.4137 360.08 66.1017 359.84 65.0937 359.84C63.0777 359.84 61.7497 360.88 61.7497 362.416C61.7497 363.92 63.2217 364.368 64.4537 364.72C65.3497 364.976 66.1177 365.2 66.1177 365.744C66.1177 366.192 65.5577 366.416 64.8057 366.368C64.0377 366.32 62.9497 365.968 62.4217 365.52L61.3977 367.168C62.2777 367.84 63.7657 368.16 65.2217 368.16ZM77.2661 363.984C77.2661 361.456 75.8421 359.824 73.5221 359.824C70.9621 359.824 69.4741 361.632 69.4741 364C69.4741 366.384 70.8021 368.16 73.6021 368.16C75.2021 368.16 76.4661 367.36 77.0581 366.08L75.4101 365.264C74.8501 366.096 74.3381 366.368 73.5541 366.368C72.4501 366.368 71.9221 365.728 71.7941 364.672H77.2181C77.2501 364.432 77.2661 364.208 77.2661 363.984ZM73.4901 361.648C74.4181 361.648 74.8981 362.176 75.0581 363.104H71.8421C72.0341 362.224 72.5301 361.648 73.4901 361.648ZM84.2194 356V360.704C83.6594 360.16 82.9234 359.84 82.0434 359.84C79.8514 359.84 78.3314 361.664 78.3314 364C78.3314 366.336 79.8514 368.16 82.0434 368.16C82.9714 368.16 83.7554 367.792 84.3314 367.184L84.4594 368.016L86.5234 368V356H84.2194ZM82.5074 366.112C81.3714 366.112 80.6354 365.184 80.6354 364C80.6354 362.816 81.3714 361.872 82.5074 361.872C83.2754 361.872 83.9314 362.4 84.2194 363.152V364.848C83.9314 365.6 83.2754 366.112 82.5074 366.112ZM101.325 368H103.933L99.1172 356H96.4132L91.5972 368H94.2052L95.0532 365.728H100.477L101.325 368ZM95.7892 363.744L97.7732 358.448L99.7413 363.744H95.7892ZM108.368 368.16C110.32 368.16 111.568 367.184 111.568 365.6C111.568 364.032 110.224 363.504 109.024 363.136C108.08 362.832 107.232 362.64 107.232 362.096C107.232 361.632 107.92 361.456 108.592 361.536C109.2 361.6 110 361.888 110.432 362.208L111.52 360.704C110.56 360.08 109.248 359.84 108.24 359.84C106.224 359.84 104.896 360.88 104.896 362.416C104.896 363.92 106.368 364.368 107.6 364.72C108.496 364.976 109.264 365.2 109.264 365.744C109.264 366.192 108.704 366.416 107.952 366.368C107.184 366.32 106.096 365.968 105.568 365.52L104.544 367.168C105.424 367.84 106.912 368.16 108.368 368.16ZM117.097 368H119.513V356H117.097V368ZM126.189 359.84C125.213 359.84 124.365 360.256 123.757 360.928L123.629 360H121.533V368H123.869V363.36C123.869 362.528 124.589 361.872 125.501 361.872C126.381 361.872 126.989 362.416 126.989 363.232V368H129.325V362.944C129.325 361.056 128.061 359.84 126.189 359.84ZM135.808 359.84C134.912 359.84 134.176 360.16 133.616 360.704V360H131.312V372L133.616 372.016V367.296C134.176 367.84 134.912 368.16 135.808 368.16C137.984 368.16 139.52 366.336 139.52 364C139.52 361.664 137.984 359.84 135.808 359.84ZM135.344 366.112C134.56 366.112 133.888 365.6 133.616 364.832V363.168C133.888 362.4 134.56 361.872 135.344 361.872C136.464 361.872 137.216 362.816 137.216 364C137.216 365.184 136.464 366.112 135.344 366.112ZM146.532 360V364.624C146.532 365.456 145.796 366.112 144.9 366.112C144.052 366.112 143.396 365.456 143.396 364.624V360H141.06V364.912C141.06 366.72 142.452 368.16 144.228 368.16C145.188 368.16 146.036 367.744 146.644 367.056L146.772 368H148.852V360H146.532ZM155.094 365.904C154.902 366.112 154.678 366.192 154.374 366.192C153.878 366.192 153.542 365.872 153.542 365.216V361.744H155.542V360H153.542V357.28H151.206V360H150.246V361.744H151.206V365.2C151.206 366.976 152.214 368.16 154.39 368.16C155.158 368.16 155.766 367.952 156.214 367.568L155.094 365.904ZM161.194 368H163.61V356H161.194V368ZM170.286 359.84C169.31 359.84 168.462 360.256 167.854 360.928L167.726 360H165.63V368H167.966V363.36C167.966 362.528 168.686 361.872 169.598 361.872C170.478 361.872 171.086 362.416 171.086 363.232V368H173.422V362.944C173.422 361.056 172.158 359.84 170.286 359.84Z" fill="black"/>
<path d="M184.142 373.696V372.032C182.59 371.984 181.358 369.392 181.358 364.032C181.358 358.64 182.59 356.016 184.142 355.968V354.304C181.438 354.336 179.326 357.456 179.326 364.032C179.326 370.592 181.438 373.664 184.142 373.696ZM187.935 368H190.271V356H188.079L185.439 358V360.56L187.935 358.64V368ZM192.821 373.696C195.525 373.664 197.653 370.592 197.653 364.032C197.653 357.456 195.525 354.336 192.821 354.304V355.968C194.389 356.016 195.605 358.64 195.605 364.032C195.605 369.392 194.389 371.984 192.821 372.032V373.696Z" fill="#7B7B7B"/>
<path d="M46.1035 303H56.7285V300.539H49.3555V300.402C49.3555 297.346 56.748 297.834 56.748 292.707C56.748 290.1 54.7461 288.342 51.5039 288.342C47.7246 288.342 45.8691 290.52 45.8398 293.293H48.6328C48.8574 291.604 49.9609 290.764 51.416 290.764C52.8125 290.764 53.6719 291.574 53.6719 292.727C53.6719 295.881 46.1035 295.686 46.1035 300.822V303ZM69.6267 288.342C65.5837 288.342 63.1033 291.154 63.1033 295.656C63.1033 300.148 65.6228 303.195 69.6755 303.195C73.5915 303.195 75.1736 300.92 75.5251 298.205L72.4685 298.137C72.1755 299.66 71.1306 300.803 69.5876 300.803C67.5271 300.803 66.3064 299.221 66.3064 295.695C66.3064 292.15 67.5368 290.744 69.5388 290.744C71.238 290.744 72.2146 291.75 72.488 293.264L75.5447 293.215C75.2517 290.422 72.9079 288.342 69.6267 288.342ZM82.3941 303.195C85.4898 303.195 87.3844 300.998 87.3844 297.893C87.3844 294.738 85.5094 292.463 82.4039 292.463C79.3863 292.463 77.3844 294.66 77.3844 297.893C77.3844 301.008 79.2887 303.195 82.3941 303.195ZM82.4039 301.037C80.7828 301.037 80.2359 299.416 80.2359 297.785C80.2359 296.154 80.7828 294.611 82.4039 294.611C83.9957 294.611 84.5328 296.154 84.5328 297.785C84.5328 299.416 84.0055 301.037 82.4039 301.037ZM89.4292 303H92.3491V296.389C92.3491 295.363 93.3159 294.855 94.2924 294.855C95.2299 294.855 96.0014 295.412 96.0014 296.545V303H98.9214V296.174C98.9214 293.615 97.1928 292.57 95.3081 292.57C93.6674 292.57 92.7788 293.371 92.31 294.123V292.658H89.4292V303ZM101.396 303H104.316V296.389C104.316 295.363 105.283 294.855 106.259 294.855C107.197 294.855 107.968 295.412 107.968 296.545V303H110.888V296.174C110.888 293.615 109.16 292.57 107.275 292.57C105.634 292.57 104.745 293.371 104.277 294.123V292.658H101.396V303ZM115.775 298.498H122.698V297.707C122.698 294.611 121.038 292.463 117.894 292.463C114.73 292.463 112.884 294.846 112.884 297.951C112.884 301.164 114.974 303.195 118.04 303.195C120.189 303.195 122.279 301.955 122.689 299.719H120.062C119.7 300.695 118.968 301.096 117.972 301.096C116.575 301.096 115.755 300.09 115.775 298.498ZM115.765 296.76C115.755 295.627 116.546 294.504 117.884 294.504C119.28 294.504 119.974 295.51 119.974 296.76H115.765ZM129.274 292.463C126.345 292.463 124.294 294.689 124.294 297.883C124.294 301.037 126.364 303.195 129.274 303.195C131.755 303.195 133.435 301.594 133.581 299.387H131.218C131.071 300.158 130.485 301.125 129.382 301.125C127.956 301.125 127.009 299.875 127.009 297.844C127.009 295.842 127.917 294.68 129.333 294.68C130.417 294.68 130.993 295.529 131.198 296.438L133.62 296.418C133.454 294.182 131.833 292.463 129.274 292.463ZM141.71 294.689V292.648H139.415V289.533H137.335L136.602 292.658H134.835V294.689H136.515V300.324C136.515 301.984 137.208 303.107 139.942 303.107C140.948 303.107 141.476 302.98 141.739 302.863V301.066H140.362C139.718 301.066 139.435 300.969 139.435 300.197L139.415 294.689H141.71ZM146.919 288.547H144.077V291.174H146.919V288.547ZM146.899 292.658H144.106V303H146.899V292.658ZM154.11 303.195C157.206 303.195 159.1 300.998 159.1 297.893C159.1 294.738 157.225 292.463 154.12 292.463C151.102 292.463 149.1 294.66 149.1 297.893C149.1 301.008 151.005 303.195 154.11 303.195ZM154.12 301.037C152.499 301.037 151.952 299.416 151.952 297.785C151.952 296.154 152.499 294.611 154.12 294.611C155.712 294.611 156.249 296.154 156.249 297.785C156.249 299.416 155.721 301.037 154.12 301.037ZM161.145 303H164.065V296.389C164.065 295.363 165.032 294.855 166.008 294.855C166.946 294.855 167.717 295.412 167.717 296.545V303H170.637V296.174C170.637 293.615 168.909 292.57 167.024 292.57C165.383 292.57 164.495 293.371 164.026 294.123V292.658H161.145V303ZM177.057 303.195C179.469 303.195 181.412 302.082 181.412 299.953C181.412 299.016 180.914 297.512 178.62 296.936L176.94 296.564C175.807 296.34 175.299 296.057 175.299 295.51C175.299 294.875 175.924 294.416 177.037 294.416C177.955 294.416 178.688 294.797 178.854 295.666H181.286C181.256 293.713 179.645 292.463 177.067 292.463C174.323 292.463 172.721 293.859 172.731 295.734C172.75 297.434 173.942 298.312 175.778 298.693L177.604 299.064C178.541 299.24 178.912 299.562 178.912 300.119C178.912 300.822 178.151 301.203 177.037 301.203C176.286 301.203 175.202 300.881 174.938 299.748H172.409C172.78 302.15 174.889 303.195 177.057 303.195Z" fill="black"/>
<path d="M51.2852 36H57.9434V34.6807L52.7822 34.6738V31.5361H57.2734V30.251H52.7959V27.1748H57.8203L57.8271 25.876H51.2852V36ZM62.1434 36.1367C63.743 36.1367 64.3173 35.1455 64.5223 34.5166L64.6864 36H65.8075V25.5957H64.3104V29.8203C64.0301 29.3213 63.2782 28.624 62.0135 28.624C60.0585 28.624 59.1083 30.2031 59.1083 32.3496C59.1083 34.6602 60.1542 36.1367 62.1434 36.1367ZM62.4374 35.0156C61.3573 35.0156 60.5917 34.2295 60.5917 32.3359C60.5917 30.6064 61.2821 29.7588 62.4442 29.7588C63.8524 29.7588 64.2762 30.9277 64.3104 31.5908V33.1357C64.2899 34.1885 63.538 35.0156 62.4374 35.0156ZM69.6589 25.8828H68.1482V27.3594H69.6589V25.8828ZM69.6247 28.7607H68.1824V36H69.6247V28.7607ZM75.8414 29.8408V28.7539H74.2145V26.6348H73.1275L72.7652 28.7607H71.5484V29.8408H72.7242V34.2158C72.7242 35.3779 73.148 36.0479 74.7545 36.0479C75.3355 36.0479 75.6979 35.9863 75.8824 35.9111V34.9404H75.0416C74.4264 34.9404 74.2213 34.8721 74.2213 34.1611L74.2145 29.8408H75.8414ZM85.0482 25.7393C82.3206 25.7393 80.7074 27.6943 80.7074 30.9004C80.7074 34.0996 82.348 36.1367 85.1097 36.1367C87.4613 36.1367 88.7533 34.7217 88.9652 32.9854L87.3861 32.8965C87.14 34.0723 86.2718 34.8652 85.0824 34.8652C83.305 34.8652 82.3548 33.5596 82.3548 30.9209C82.3548 28.2344 83.3187 27.0176 85.0208 27.0176C86.4085 27.0176 87.1947 27.8174 87.4134 28.9727L88.9925 28.9111C88.8011 27.1338 87.263 25.7393 85.0482 25.7393ZM93.8283 36.1367C95.927 36.1367 97.1711 34.6055 97.1711 32.418C97.1711 30.21 95.9338 28.624 93.8283 28.624C91.757 28.624 90.4514 30.1689 90.4514 32.418C90.4514 34.6123 91.7092 36.1367 93.8283 36.1367ZM93.8283 34.9883C92.4885 34.9883 91.9348 33.8057 91.9348 32.3701C91.9348 30.9346 92.5021 29.7725 93.8283 29.7725C95.1477 29.7725 95.6945 30.9346 95.6945 32.3701C95.6945 33.8057 95.1545 34.9883 93.8283 34.9883ZM98.9102 36H100.407V31.2217C100.407 30.3193 101.241 29.8818 102.144 29.8818C103.012 29.8818 103.627 30.3809 103.627 31.4199V36H105.131V31.2559C105.131 29.4443 103.948 28.6719 102.595 28.6719C101.44 28.6719 100.722 29.2256 100.373 29.8066V28.7607H98.9102V36ZM107.178 36H108.675V31.2217C108.675 30.3193 109.509 29.8818 110.411 29.8818C111.279 29.8818 111.894 30.3809 111.894 31.4199V36H113.398V31.2559C113.398 29.4443 112.216 28.6719 110.862 28.6719C109.707 28.6719 108.989 29.2256 108.641 29.8066V28.7607H107.178V36ZM116.587 32.7256H121.652V32.2334C121.652 30.0391 120.517 28.624 118.446 28.624C116.32 28.624 115.083 30.2031 115.083 32.459C115.083 34.749 116.491 36.1367 118.542 36.1367C119.964 36.1367 121.29 35.3643 121.618 33.833H120.237C119.964 34.626 119.369 35.0088 118.508 35.0088C117.229 35.0088 116.58 34.0312 116.587 32.7256ZM116.587 31.7617C116.58 30.7637 117.202 29.7246 118.439 29.7246C119.649 29.7246 120.237 30.6201 120.237 31.7617H116.587ZM126.406 28.624C124.382 28.624 123.043 30.1826 123.043 32.418C123.043 34.626 124.396 36.1367 126.406 36.1367C127.944 36.1367 129.133 35.2275 129.325 33.6826H128.053C127.903 34.4209 127.322 35.0293 126.474 35.0293C125.237 35.0293 124.465 34.0039 124.465 32.3906C124.465 30.791 125.237 29.8066 126.454 29.8066C127.274 29.8066 127.841 30.333 128.047 31.1533L129.339 31.1396C129.154 29.6152 127.985 28.624 126.406 28.624ZM134.776 29.8408V28.7539H133.149V26.6348H132.062L131.7 28.7607H130.483V29.8408H131.659V34.2158C131.659 35.3779 132.083 36.0479 133.689 36.0479C134.27 36.0479 134.632 35.9863 134.817 35.9111V34.9404H133.976C133.361 34.9404 133.156 34.8721 133.156 34.1611L133.149 29.8408H134.776ZM138.265 25.8828H136.754V27.3594H138.265V25.8828ZM138.231 28.7607H136.788V36H138.231V28.7607ZM143.47 36.1367C145.569 36.1367 146.813 34.6055 146.813 32.418C146.813 30.21 145.575 28.624 143.47 28.624C141.399 28.624 140.093 30.1689 140.093 32.418C140.093 34.6123 141.351 36.1367 143.47 36.1367ZM143.47 34.9883C142.13 34.9883 141.576 33.8057 141.576 32.3701C141.576 30.9346 142.144 29.7725 143.47 29.7725C144.789 29.7725 145.336 30.9346 145.336 32.3701C145.336 33.8057 144.796 34.9883 143.47 34.9883ZM148.552 36H150.049V31.2217C150.049 30.3193 150.883 29.8818 151.785 29.8818C152.653 29.8818 153.269 30.3809 153.269 31.4199V36H154.773V31.2559C154.773 29.4443 153.59 28.6719 152.236 28.6719C151.081 28.6719 150.363 29.2256 150.015 29.8066V28.7607H148.552V36ZM159.342 36.1367C160.914 36.1367 162.199 35.3848 162.199 33.9561C162.199 33.2588 161.837 32.3291 160.429 31.9668L159.055 31.625C158.255 31.4473 157.858 31.2012 157.858 30.7227C157.858 30.1416 158.323 29.6904 159.321 29.6904C160.08 29.6904 160.668 30.0049 160.777 30.75H162.076C162.042 29.458 161.01 28.624 159.335 28.624C157.571 28.624 156.498 29.54 156.505 30.8184C156.512 31.9258 157.284 32.5 158.48 32.7734L159.923 33.1152C160.579 33.2656 160.873 33.5459 160.873 34.0449C160.873 34.6875 160.251 35.0566 159.335 35.0566C158.576 35.0566 157.79 34.7217 157.599 33.8467H156.259C156.484 35.4053 157.817 36.1367 159.342 36.1367Z" fill="black"/>
<rect x="15" y="392" width="538" height="68" fill="white"/>
<path d="M452 424H458L455 428L452 424Z" fill="#212121" stroke="#212121" stroke-linejoin="round"/>
<line x1="15" y1="55.5" x2="554" y2="55.5" stroke="#797979"/>
<path d="M95.648 223.808C96.48 223.328 96.992 222.512 96.992 221.312C96.992 219.232 95.424 218 93.44 218H88.96V230H94.368C96.336 230 97.888 228.8 97.888 226.736C97.888 225.152 96.976 224.208 95.648 223.808ZM94.592 221.552C94.592 222.336 93.952 223.024 93.152 223.024H91.36V220.096H93.152C93.952 220.096 94.592 220.768 94.592 221.552ZM94.016 227.888H91.36V224.976H94.016C94.832 224.976 95.472 225.648 95.472 226.432C95.472 227.216 94.832 227.888 94.016 227.888ZM107.328 222H105.008V226.624C105.008 227.456 104.272 228.112 103.376 228.112C102.528 228.112 101.872 227.456 101.872 226.624V222H99.5364V226.912C99.5364 228.72 100.928 230.16 102.704 230.16C103.6 230.16 104.4 229.792 105.008 229.184V230C105.008 231.424 104.144 232.112 103.04 232.112C101.968 232.112 101.152 231.808 100.464 231.312V233.536C101.184 233.856 102 234.032 103.008 234.032C105.648 234.032 107.344 232.432 107.344 230L107.328 222ZM122.064 218L118.608 227.2L115.136 218H112.432L117.248 230H119.952L124.768 218H122.064ZM131.748 225.984C131.748 223.456 130.324 221.824 128.004 221.824C125.444 221.824 123.956 223.632 123.956 226C123.956 228.384 125.284 230.16 128.084 230.16C129.684 230.16 130.948 229.36 131.54 228.08L129.892 227.264C129.332 228.096 128.82 228.368 128.036 228.368C126.932 228.368 126.404 227.728 126.276 226.672H131.7C131.732 226.432 131.748 226.208 131.748 225.984ZM127.972 223.648C128.9 223.648 129.38 224.176 129.54 225.104H126.324C126.516 224.224 127.012 223.648 127.972 223.648ZM137.934 221.84C137.006 221.84 136.206 222.208 135.614 222.816V218H133.278V230H135.614V225.36C135.614 224.528 136.334 223.872 137.246 223.872C138.126 223.872 138.734 224.416 138.734 225.232V230H141.07V224.944C141.07 223.056 139.806 221.84 137.934 221.84ZM144.401 220.624C145.121 220.624 145.729 220.032 145.729 219.312C145.729 218.592 145.121 218 144.401 218C143.697 218 143.089 218.592 143.089 219.312C143.089 220.032 143.697 220.624 144.401 220.624ZM143.233 230H145.569V222H143.233V230ZM151.214 230.16C151.838 230.16 152.622 230.064 153.198 229.712V227.584C152.862 227.952 152.254 228.208 151.582 228.208C150.366 228.208 149.614 227.264 149.614 226C149.614 224.72 150.366 223.792 151.582 223.792C152.238 223.792 152.862 224.048 153.198 224.416V222.256C152.558 221.936 151.838 221.84 151.214 221.84C148.846 221.84 147.31 223.584 147.31 226C147.31 228.416 148.846 230.16 151.214 230.16ZM158.067 230.16C158.835 230.16 159.443 229.952 159.891 229.568L158.771 227.904C158.579 228.112 158.355 228.192 158.051 228.192C157.555 228.192 157.219 227.872 157.219 227.216V218H154.883V227.2C154.883 228.976 155.891 230.16 158.067 230.16ZM167.988 225.984C167.988 223.456 166.564 221.824 164.244 221.824C161.684 221.824 160.196 223.632 160.196 226C160.196 228.384 161.524 230.16 164.324 230.16C165.924 230.16 167.188 229.36 167.78 228.08L166.132 227.264C165.572 228.096 165.06 228.368 164.276 228.368C163.172 228.368 162.644 227.728 162.516 226.672H167.94C167.972 226.432 167.988 226.208 167.988 225.984ZM164.212 223.648C165.14 223.648 165.62 224.176 165.78 225.104H162.564C162.756 224.224 163.252 223.648 164.212 223.648ZM184.011 218L180.059 223.84L176.139 218H173.531V230H175.947V221.392L180.043 227.696L184.187 221.392V230H186.587V218H184.011ZM192.031 221.84C190.351 221.84 189.327 222.272 188.447 223.232L189.839 224.56C190.415 223.872 191.103 223.6 191.807 223.6C192.607 223.6 193.391 223.968 193.391 224.896V225.584L192.255 225.408C189.679 225.008 188.351 226.224 188.351 227.712C188.351 229.216 189.423 230.16 190.943 230.16C191.903 230.16 192.799 229.824 193.583 229.216L193.695 230H195.663V224.912C195.663 222.784 194.127 221.84 192.031 221.84ZM190.783 227.584C190.783 227.04 191.199 226.48 192.751 226.784L193.391 226.912V227.728C192.959 228.112 192.431 228.448 191.759 228.448C191.183 228.448 190.783 228.112 190.783 227.584ZM202.276 221.84C201.3 221.84 200.452 222.256 199.844 222.928L199.716 222H197.62V230H199.956V225.36C199.956 224.528 200.676 223.872 201.588 223.872C202.468 223.872 203.076 224.416 203.076 225.232V230H205.412V224.944C205.412 223.056 204.148 221.84 202.276 221.84ZM210.84 221.84C209.16 221.84 208.136 222.272 207.256 223.232L208.648 224.56C209.224 223.872 209.912 223.6 210.616 223.6C211.416 223.6 212.2 223.968 212.2 224.896V225.584L211.064 225.408C208.488 225.008 207.16 226.224 207.16 227.712C207.16 229.216 208.232 230.16 209.752 230.16C210.712 230.16 211.608 229.824 212.392 229.216L212.504 230H214.472V224.912C214.472 222.784 212.936 221.84 210.84 221.84ZM209.592 227.584C209.592 227.04 210.008 226.48 211.56 226.784L212.2 226.912V227.728C211.768 228.112 211.24 228.448 210.568 228.448C209.992 228.448 209.592 228.112 209.592 227.584ZM222.093 222L221.981 222.832C221.405 222.208 220.621 221.84 219.677 221.84C217.485 221.84 215.965 223.664 215.965 226C215.965 228.336 217.485 230.16 219.677 230.16C220.557 230.16 221.293 229.84 221.853 229.296V229.968C221.853 231.408 221.037 232.08 220.077 232.08C219.117 232.08 218.381 231.776 217.741 231.296V233.52C218.413 233.824 219.165 234 220.061 234C222.525 234 224.173 232.4 224.173 229.968V222H222.093ZM220.141 228.112C219.005 228.112 218.269 227.184 218.269 226C218.269 224.816 219.005 223.872 220.141 223.872C220.909 223.872 221.565 224.4 221.853 225.152V226.848C221.565 227.6 220.909 228.112 220.141 228.112ZM233.505 225.984C233.505 223.456 232.081 221.824 229.761 221.824C227.201 221.824 225.713 223.632 225.713 226C225.713 228.384 227.041 230.16 229.841 230.16C231.441 230.16 232.705 229.36 233.297 228.08L231.649 227.264C231.089 228.096 230.577 228.368 229.793 228.368C228.689 228.368 228.161 227.728 228.033 226.672H233.457C233.489 226.432 233.505 226.208 233.505 225.984ZM229.729 223.648C230.657 223.648 231.137 224.176 231.297 225.104H228.081C228.273 224.224 228.769 223.648 229.729 223.648ZM244.65 221.84C243.562 221.84 242.634 222.32 242.01 223.088C241.498 222.304 240.618 221.84 239.514 221.84C238.586 221.84 237.802 222.224 237.242 222.848L237.13 222H235.034V230H237.37V225.36C237.37 224.528 238.026 223.872 238.858 223.872C239.642 223.872 240.17 224.416 240.17 225.2V230H242.506V225.36C242.506 224.528 243.146 223.872 243.978 223.872C244.778 223.872 245.306 224.416 245.306 225.2V230H247.642V224.912C247.642 223.056 246.458 221.84 244.65 221.84ZM256.938 225.984C256.938 223.456 255.514 221.824 253.194 221.824C250.634 221.824 249.146 223.632 249.146 226C249.146 228.384 250.474 230.16 253.274 230.16C254.874 230.16 256.138 229.36 256.73 228.08L255.082 227.264C254.522 228.096 254.01 228.368 253.226 228.368C252.122 228.368 251.594 227.728 251.466 226.672H256.89C256.922 226.432 256.938 226.208 256.938 225.984ZM253.162 223.648C254.09 223.648 254.57 224.176 254.73 225.104H251.514C251.706 224.224 252.202 223.648 253.162 223.648ZM263.123 221.84C262.147 221.84 261.299 222.256 260.691 222.928L260.563 222H258.467V230H260.803V225.36C260.803 224.528 261.523 223.872 262.435 223.872C263.315 223.872 263.923 224.416 263.923 225.232V230H266.259V224.944C266.259 223.056 264.995 221.84 263.123 221.84ZM272.314 227.904C272.122 228.112 271.898 228.192 271.594 228.192C271.098 228.192 270.762 227.872 270.762 227.216V223.744H272.762V222H270.762V219.28H268.426V222H267.466V223.744H268.426V227.2C268.426 228.976 269.434 230.16 271.61 230.16C272.378 230.16 272.986 229.952 273.434 229.568L272.314 227.904Z" fill="#979797"/>
<path d="M283.134 235.696V234.032C281.582 233.984 280.35 231.392 280.35 226.032C280.35 220.64 281.582 218.016 283.134 217.968V216.304C280.43 216.336 278.318 219.456 278.318 226.032C278.318 232.592 280.43 235.664 283.134 235.696ZM294.862 218H292.206L289.454 222.304L286.734 218H284.046L288.27 224.368V230H290.67V224.32L294.862 218ZM297.403 230.16C299.819 230.16 301.579 228.32 301.579 226C301.579 223.664 299.819 221.84 297.403 221.84C294.971 221.84 293.227 223.664 293.227 226C293.227 228.32 294.971 230.16 297.403 230.16ZM297.403 228.112C296.267 228.112 295.531 227.184 295.531 226C295.531 224.816 296.267 223.872 297.403 223.872C298.507 223.872 299.275 224.816 299.275 226C299.275 227.184 298.507 228.112 297.403 228.112ZM308.599 222V226.624C308.599 227.456 307.863 228.112 306.967 228.112C306.119 228.112 305.463 227.456 305.463 226.624V222H303.127V226.912C303.127 228.72 304.519 230.16 306.295 230.16C307.255 230.16 308.103 229.744 308.711 229.056L308.839 230H310.919V222H308.599ZM317.449 221.84C316.521 221.84 315.705 222.384 315.161 223.232L315.033 222H312.937V230H315.273V226C315.273 224.672 316.201 223.872 317.161 223.872C317.833 223.872 318.185 224.08 318.409 224.24L319.385 222.528C318.905 222.064 318.377 221.84 317.449 221.84ZM332.088 218H323.544V220.096H326.632V230H329.016V220.096H332.088V218ZM338.915 225.984C338.915 223.456 337.491 221.824 335.171 221.824C332.611 221.824 331.123 223.632 331.123 226C331.123 228.384 332.451 230.16 335.251 230.16C336.851 230.16 338.115 229.36 338.707 228.08L337.059 227.264C336.499 228.096 335.987 228.368 335.203 228.368C334.099 228.368 333.571 227.728 333.443 226.672H338.867C338.899 226.432 338.915 226.208 338.915 225.984ZM335.139 223.648C336.067 223.648 336.547 224.176 336.707 225.104H333.491C333.683 224.224 334.179 223.648 335.139 223.648ZM343.884 221.84C342.204 221.84 341.18 222.272 340.3 223.232L341.692 224.56C342.268 223.872 342.956 223.6 343.66 223.6C344.46 223.6 345.244 223.968 345.244 224.896V225.584L344.108 225.408C341.532 225.008 340.204 226.224 340.204 227.712C340.204 229.216 341.276 230.16 342.796 230.16C343.756 230.16 344.652 229.824 345.436 229.216L345.548 230H347.516V224.912C347.516 222.784 345.98 221.84 343.884 221.84ZM342.636 227.584C342.636 227.04 343.052 226.48 344.604 226.784L345.244 226.912V227.728C344.812 228.112 344.284 228.448 343.612 228.448C343.036 228.448 342.636 228.112 342.636 227.584ZM359.09 221.84C358.002 221.84 357.074 222.32 356.45 223.088C355.938 222.304 355.058 221.84 353.954 221.84C353.026 221.84 352.242 222.224 351.682 222.848L351.57 222H349.474V230H351.81V225.36C351.81 224.528 352.466 223.872 353.298 223.872C354.082 223.872 354.61 224.416 354.61 225.2V230H356.946V225.36C356.946 224.528 357.586 223.872 358.418 223.872C359.218 223.872 359.746 224.416 359.746 225.2V230H362.082V224.912C362.082 223.056 360.898 221.84 359.09 221.84ZM363.89 235.696C366.594 235.664 368.722 232.592 368.722 226.032C368.722 219.456 366.594 216.336 363.89 216.304V217.968C365.458 218.016 366.674 220.64 366.674 226.032C366.674 231.392 365.458 233.984 363.89 234.032V235.696Z" fill="#8963F8"/>
<ellipse cx="59.8936" cy="224" rx="14.8936" ry="15" fill="#8963F8"/>
<path d="M66.9554 222.092C66.6417 221.719 64.916 219.529 63.3211 221.345C61.7261 223.162 61.1509 223.834 60.5756 223.436C60.5404 223.411 60.5065 223.389 60.4754 223.371C60.3717 223.181 60.2221 223.016 60.0411 222.89C60.3267 222.492 60.8057 221.853 61.1112 221.595C61.5704 221.209 65.8791 217.626 63.8042 215.693C61.7301 213.76 57.1836 216.453 56.8011 216.763C56.4183 217.072 54.1697 218.779 56.1243 220.242C58.0802 221.705 58.8029 222.233 58.4011 222.792C58.3774 222.826 58.3574 222.856 58.3407 222.885C58.2297 222.961 58.1304 223.051 58.0455 223.153C57.6421 222.895 56.8805 222.386 56.5887 222.072C56.1829 221.635 52.4187 217.533 50.3877 219.509C48.3566 221.483 51.1857 225.81 51.511 226.174C51.8361 226.539 53.6298 228.679 55.1673 226.818C56.7047 224.957 57.2592 224.269 57.8458 224.651C57.8773 224.671 57.9066 224.69 57.9347 224.704C57.9965 224.806 58.0718 224.899 58.1585 224.982C57.9034 225.322 57.2801 226.134 56.912 226.425C56.4414 226.799 52.0227 230.258 54.0358 232.249C56.0489 234.24 60.6769 231.676 61.069 231.378C61.4614 231.079 63.7623 229.437 61.8539 227.918C59.9576 226.41 59.2484 225.86 59.6502 225.316C59.9021 225.236 60.1236 225.09 60.2924 224.901C60.6761 225.163 61.4604 225.716 61.7524 226.049C62.1445 226.497 65.7789 230.703 67.8705 228.786C69.9623 226.871 67.2692 222.465 66.9554 222.092ZM59.1866 224.542C58.8761 224.542 58.6251 224.302 58.6251 224.007C58.6251 223.711 58.8761 223.472 59.1866 223.472C59.4971 223.472 59.7495 223.711 59.7495 224.007C59.7495 224.302 59.4971 224.542 59.1866 224.542Z" fill="white"/>
<path d="M207.901 300.137C210.342 300.137 211.784 298.913 211.784 297.389C211.784 296.288 211.347 294.969 209.289 294.524L207.327 294.066C205.98 293.731 205.563 293.301 205.563 292.576C205.563 291.441 206.691 290.854 207.854 290.854C209.077 290.854 210.103 291.332 210.321 292.686L211.634 292.61C211.477 291.12 210.205 289.753 207.847 289.753C205.707 289.753 204.155 290.949 204.162 292.699C204.176 294.087 205.085 294.859 206.616 295.194L208.64 295.652C209.788 295.912 210.431 296.486 210.431 297.409C210.431 298.435 209.344 299.063 207.895 299.063C206.596 299.063 205.468 298.469 205.215 297.327L203.854 297.409C204.121 299.207 205.953 300.137 207.901 300.137ZM214.795 296.685H219.949V296.213C219.949 294.012 218.828 292.624 216.798 292.624C214.706 292.624 213.496 294.176 213.496 296.452C213.496 298.763 214.877 300.137 216.893 300.137C218.288 300.137 219.559 299.398 219.908 297.888H218.691C218.411 298.715 217.782 299.139 216.866 299.139C215.472 299.139 214.795 298.059 214.795 296.685ZM214.802 295.81C214.795 294.729 215.444 293.602 216.791 293.602C218.09 293.602 218.712 294.565 218.712 295.81H214.802ZM222.802 296.685H227.957V296.213C227.957 294.012 226.836 292.624 224.805 292.624C222.714 292.624 221.504 294.176 221.504 296.452C221.504 298.763 222.885 300.137 224.901 300.137C226.296 300.137 227.567 299.398 227.916 297.888H226.699C226.419 298.715 225.79 299.139 224.874 299.139C223.479 299.139 222.802 298.059 222.802 296.685ZM222.809 295.81C222.802 294.729 223.452 293.602 224.799 293.602C226.097 293.602 226.719 294.565 226.719 295.81H222.809ZM237.095 300.137C238.702 300.137 239.624 299.337 240.158 298.455V300H241.135V294.777L237.321 294.771V295.721H239.789L239.748 296.616C239.693 297.621 238.859 298.968 237.177 298.968C235.42 298.968 234.204 297.724 234.204 294.887C234.204 292.269 235.352 290.895 237.143 290.895C238.421 290.895 239.365 291.756 239.563 292.884L240.964 292.802C240.848 291.182 239.201 289.739 237.164 289.739C234.532 289.739 232.802 291.688 232.802 294.976C232.802 298.161 234.443 300.137 237.095 300.137ZM243.51 300H244.809V295.502C244.809 294.429 245.643 293.807 247.188 293.889C247.29 293.896 247.297 293.896 247.352 293.923V292.658C247.318 292.631 247.249 292.624 247.181 292.624C245.944 292.624 245.11 293.308 244.747 294.155V292.761H243.51V300ZM250.841 300.137C251.88 300.137 252.769 299.768 253.329 298.64L253.432 300H254.532V294.948C254.532 293.526 253.589 292.624 251.709 292.624C249.966 292.624 248.872 293.547 248.797 294.805H249.946C250.116 293.984 250.834 293.588 251.654 293.581C252.646 293.574 253.288 294.094 253.288 295.017V295.577L251.996 295.618C249.515 295.673 248.462 296.438 248.462 298.045C248.462 299.364 249.44 300.137 250.841 300.137ZM251.231 299.207C250.342 299.207 249.713 298.729 249.713 297.922C249.713 296.842 250.554 296.425 252.215 296.397L253.288 296.384V297.621C253.281 298.421 252.201 299.207 251.231 299.207ZM256.887 302.256H258.186V299.002C258.753 299.836 259.437 300.137 260.209 300.137C262.055 300.137 263.429 298.756 263.429 296.288C263.429 293.82 262.082 292.624 260.414 292.624C259.177 292.624 258.507 293.328 258.172 293.759V292.761H256.887V302.256ZM260.004 299.146C259.259 299.146 258.616 298.681 258.186 298.004V295.304C258.186 294.545 258.979 293.629 260.072 293.629C261.173 293.629 262.185 294.497 262.185 296.322C262.185 298.127 261.241 299.146 260.004 299.146ZM265.264 300H266.562V295.174C266.562 294.196 267.444 293.731 268.422 293.731C269.372 293.731 270.021 294.224 270.021 295.085V300H271.32V294.825C271.32 293.506 270.206 292.672 268.798 292.672C267.636 292.672 266.897 293.232 266.535 293.827V289.596H265.264V300ZM284.266 289.876H283.002L279.905 298.523L276.877 289.876H275.598L279.119 300H280.684L284.266 289.876ZM287.092 289.883H285.759V291.229H287.092V289.883ZM287.051 292.761H285.807V300H287.051V292.761ZM290.411 296.685H295.565V296.213C295.565 294.012 294.444 292.624 292.413 292.624C290.322 292.624 289.112 294.176 289.112 296.452C289.112 298.763 290.493 300.137 292.509 300.137C293.904 300.137 295.175 299.398 295.524 297.888H294.307C294.027 298.715 293.398 299.139 292.482 299.139C291.087 299.139 290.411 298.059 290.411 296.685ZM290.417 295.81C290.411 294.729 291.06 293.602 292.407 293.602C293.705 293.602 294.328 294.565 294.328 295.81H290.417ZM306.751 292.761H305.541L303.955 298.312H303.839L302.144 292.761H301.166L299.532 298.325H299.423L297.769 292.761H296.566L298.801 300H300.066L301.638 294.654L303.285 300H304.564L306.751 292.761Z" fill="black"/>
<path d="M203 302.591H307.155V303.507H203V302.591Z" fill="black"/>
<circle cx="521" cy="426" r="2" fill="#979797"/>
<circle cx="528" cy="426" r="2" fill="#979797"/>
<circle cx="535" cy="426" r="2" fill="#979797"/>
<line x1="15" y1="540.5" x2="554.001" y2="540.5" stroke="#C4C4C4"/>
<line x1="15" y1="609.5" x2="554.001" y2="609.5" stroke="#C4C4C4"/>
<path d="M55.904 514.16C58.656 514.16 60.816 512.384 60.816 510.128V502H58.4V509.696C58.4 511.008 57.296 512.048 55.904 512.048C54.512 512.048 53.408 511.008 53.408 509.696V502H50.992V510.128C50.992 512.384 53.152 514.16 55.904 514.16ZM66.2082 514.16C68.1602 514.16 69.4082 513.184 69.4082 511.6C69.4082 510.032 68.0642 509.504 66.8642 509.136C65.9202 508.832 65.0722 508.64 65.0722 508.096C65.0722 507.632 65.7602 507.456 66.4322 507.536C67.0402 507.6 67.8402 507.888 68.2722 508.208L69.3602 506.704C68.4002 506.08 67.0882 505.84 66.0802 505.84C64.0642 505.84 62.7362 506.88 62.7362 508.416C62.7362 509.92 64.2082 510.368 65.4402 510.72C66.3362 510.976 67.1042 511.2 67.1042 511.744C67.1042 512.192 66.5442 512.416 65.7922 512.368C65.0242 512.32 63.9362 511.968 63.4082 511.52L62.3842 513.168C63.2642 513.84 64.7522 514.16 66.2082 514.16ZM72.2686 504.624C72.9886 504.624 73.5966 504.032 73.5966 503.312C73.5966 502.592 72.9886 502 72.2686 502C71.5646 502 70.9566 502.592 70.9566 503.312C70.9566 504.032 71.5646 504.624 72.2686 504.624ZM71.1006 514H73.4366V506H71.1006V514ZM80.2972 505.84C79.3212 505.84 78.4732 506.256 77.8652 506.928L77.7372 506H75.6412V514H77.9772V509.36C77.9772 508.528 78.6972 507.872 79.6093 507.872C80.4892 507.872 81.0972 508.416 81.0972 509.232V514H83.4333V508.944C83.4333 507.056 82.1693 505.84 80.2972 505.84ZM91.0844 506L90.9724 506.832C90.3964 506.208 89.6124 505.84 88.6684 505.84C86.4764 505.84 84.9564 507.664 84.9564 510C84.9564 512.336 86.4764 514.16 88.6684 514.16C89.5484 514.16 90.2844 513.84 90.8444 513.296V513.968C90.8444 515.408 90.0284 516.08 89.0684 516.08C88.1084 516.08 87.3724 515.776 86.7324 515.296V517.52C87.4044 517.824 88.1564 518 89.0524 518C91.5164 518 93.1644 516.4 93.1644 513.968V506H91.0844ZM89.1324 512.112C87.9964 512.112 87.2604 511.184 87.2604 510C87.2604 508.816 87.9964 507.872 89.1324 507.872C89.9004 507.872 90.5564 508.4 90.8444 509.152V510.848C90.5564 511.6 89.9004 512.112 89.1324 512.112ZM99.1819 514H101.598V502H99.1819V514ZM108.273 505.84C107.297 505.84 106.449 506.256 105.841 506.928L105.713 506H103.617V514H105.953V509.36C105.953 508.528 106.673 507.872 107.585 507.872C108.465 507.872 109.073 508.416 109.073 509.232V514H111.409V508.944C111.409 507.056 110.145 505.84 108.273 505.84ZM117.892 505.84C116.996 505.84 116.26 506.16 115.7 506.704V506H113.396V518L115.7 518.016V513.296C116.26 513.84 116.996 514.16 117.892 514.16C120.068 514.16 121.604 512.336 121.604 510C121.604 507.664 120.068 505.84 117.892 505.84ZM117.428 512.112C116.644 512.112 115.972 511.6 115.7 510.832V509.168C115.972 508.4 116.644 507.872 117.428 507.872C118.548 507.872 119.3 508.816 119.3 510C119.3 511.184 118.548 512.112 117.428 512.112ZM128.617 506V510.624C128.617 511.456 127.881 512.112 126.985 512.112C126.137 512.112 125.481 511.456 125.481 510.624V506H123.145V510.912C123.145 512.72 124.537 514.16 126.313 514.16C127.273 514.16 128.121 513.744 128.729 513.056L128.857 514H130.937V506H128.617ZM137.179 511.904C136.987 512.112 136.763 512.192 136.459 512.192C135.963 512.192 135.627 511.872 135.627 511.216V507.744H137.627V506H135.627V503.28H133.291V506H132.331V507.744H133.291V511.2C133.291 512.976 134.299 514.16 136.475 514.16C137.243 514.16 137.851 513.952 138.299 513.568L137.179 511.904ZM142.453 514.16C144.405 514.16 145.653 513.184 145.653 511.6C145.653 510.032 144.309 509.504 143.109 509.136C142.165 508.832 141.317 508.64 141.317 508.096C141.317 507.632 142.005 507.456 142.677 507.536C143.285 507.6 144.085 507.888 144.517 508.208L145.605 506.704C144.645 506.08 143.333 505.84 142.325 505.84C140.309 505.84 138.981 506.88 138.981 508.416C138.981 509.92 140.453 510.368 141.685 510.72C142.581 510.976 143.349 511.2 143.349 511.744C143.349 512.192 142.789 512.416 142.037 512.368C141.269 512.32 140.181 511.968 139.653 511.52L138.629 513.168C139.509 513.84 140.997 514.16 142.453 514.16ZM158.303 504.096V502H151.183V514H153.599V509.056H157.631V506.944H153.599V504.096H158.303ZM164.365 505.84C163.437 505.84 162.621 506.384 162.077 507.232L161.949 506H159.853V514H162.189V510C162.189 508.672 163.117 507.872 164.077 507.872C164.749 507.872 165.101 508.08 165.325 508.24L166.301 506.528C165.821 506.064 165.293 505.84 164.365 505.84ZM170.672 514.16C173.088 514.16 174.848 512.32 174.848 510C174.848 507.664 173.088 505.84 170.672 505.84C168.24 505.84 166.496 507.664 166.496 510C166.496 512.32 168.24 514.16 170.672 514.16ZM170.672 512.112C169.536 512.112 168.8 511.184 168.8 510C168.8 508.816 169.536 507.872 170.672 507.872C171.776 507.872 172.544 508.816 172.544 510C172.544 511.184 171.776 512.112 170.672 512.112ZM185.996 505.84C184.908 505.84 183.98 506.32 183.356 507.088C182.844 506.304 181.964 505.84 180.86 505.84C179.932 505.84 179.148 506.224 178.588 506.848L178.476 506H176.38V514H178.716V509.36C178.716 508.528 179.372 507.872 180.204 507.872C180.988 507.872 181.516 508.416 181.516 509.2V514H183.852V509.36C183.852 508.528 184.492 507.872 185.324 507.872C186.124 507.872 186.652 508.416 186.652 509.2V514H188.988V508.912C188.988 507.056 187.804 505.84 185.996 505.84Z" fill="black"/>
<path d="M199.689 519.696V518.032C198.137 517.984 196.905 515.392 196.905 510.032C196.905 504.64 198.137 502.016 199.689 501.968V500.304C196.985 500.336 194.873 503.456 194.873 510.032C194.873 516.592 196.985 519.664 199.689 519.696ZM203.481 514H205.817V502H203.625L200.985 504V506.56L203.481 504.64V514ZM208.368 519.696C211.072 519.664 213.2 516.592 213.2 510.032C213.2 503.456 211.072 500.336 208.368 500.304V501.968C209.936 502.016 211.152 504.64 211.152 510.032C211.152 515.392 209.936 517.984 208.368 518.032V519.696Z" fill="#797979"/>
<path d="M100.984 648H102.568L97.752 636H96.12L91.304 648H92.888L93.864 645.488H100.008L100.984 648ZM94.328 644.256L96.936 637.504L99.544 644.256H94.328ZM109.926 636V641.088C109.302 640.32 108.39 639.84 107.302 639.84C105.046 639.84 103.622 641.68 103.622 644C103.622 646.32 105.046 648.16 107.302 648.16C108.422 648.16 109.334 647.664 109.974 646.848L110.038 648H111.302V636H109.926ZM107.526 646.896C105.958 646.896 105.014 645.616 105.014 644C105.014 642.384 105.958 641.088 107.526 641.088C108.678 641.088 109.622 641.952 109.926 643.136V644.864C109.622 646.048 108.678 646.896 107.526 646.896ZM119.534 636V641.088C118.91 640.32 117.998 639.84 116.91 639.84C114.654 639.84 113.23 641.68 113.23 644C113.23 646.32 114.654 648.16 116.91 648.16C118.03 648.16 118.942 647.664 119.582 646.848L119.646 648H120.91V636H119.534ZM117.134 646.896C115.566 646.896 114.622 645.616 114.622 644C114.622 642.384 115.566 641.088 117.134 641.088C118.286 641.088 119.23 641.952 119.534 643.136V644.864C119.23 646.048 118.286 646.896 117.134 646.896ZM131.597 639.84C130.525 639.84 129.613 640.32 129.005 641.056L128.941 640H127.645V648H129.053V643.168C129.053 642.016 130.013 641.088 131.213 641.088C132.397 641.088 133.293 641.952 133.293 643.104V648H134.717V642.944C134.717 641.136 133.389 639.84 131.597 639.84ZM144.023 644C144.023 641.568 142.679 639.84 140.391 639.84C138.039 639.84 136.583 641.632 136.583 644.016C136.583 646.4 138.023 648.16 140.391 648.16C141.895 648.16 142.983 647.472 143.639 646.288L142.647 645.6C142.007 646.592 141.399 646.928 140.439 646.928C138.951 646.928 138.103 645.936 137.959 644.464H144.007C144.023 644.304 144.023 644.144 144.023 644ZM140.423 641.056C141.783 641.056 142.599 641.952 142.743 643.36H137.991C138.199 641.984 139.031 641.056 140.423 641.056ZM154.513 640L152.481 646.336L150.385 640H148.993L149.809 642.352L148.497 646.304L146.497 640H144.897L147.649 648H149.185L150.465 644.192L151.793 648H153.345L156.081 640H154.513Z" fill="black"/>
<path d="M67.25 644.65H62.65V649.25H60.35V644.65H55.75V642.35H60.35V637.75H62.65V642.35H67.25V644.65ZM61.5 632C59.9898 632 58.4944 632.297 57.0991 632.875C55.7039 633.453 54.4361 634.3 53.3683 635.368C51.2116 637.525 50 640.45 50 643.5C50 646.55 51.2116 649.475 53.3683 651.632C54.4361 652.7 55.7039 653.547 57.0991 654.125C58.4944 654.703 59.9898 655 61.5 655C64.55 655 67.4751 653.788 69.6317 651.632C71.7884 649.475 73 646.55 73 643.5C73 641.99 72.7025 640.494 72.1246 639.099C71.5467 637.704 70.6996 636.436 69.6317 635.368C68.5639 634.3 67.2961 633.453 65.9009 632.875C64.5056 632.297 63.0102 632 61.5 632V632Z" fill="#686B6F"/>
<rect x="15" y="541" width="539" height="68" fill="white"/>
<path d="M453 573H459L456 577L453 573Z" fill="#212121" stroke="#212121" stroke-linejoin="round"/>
<rect x="458" y="689" width="71" height="34" rx="3" fill="#454A57"/>
<path d="M482.188 711.137C484.642 711.137 486.153 709.906 486.153 708.354C486.153 707.268 485.75 705.873 483.569 705.422L481.662 704.991C480.377 704.684 479.987 704.273 479.987 703.583C479.987 702.564 480.999 701.997 482.147 701.997C483.33 701.997 484.294 702.448 484.492 703.72L486.01 703.658C485.852 702.141 484.513 700.753 482.141 700.753C479.967 700.753 478.36 701.949 478.374 703.74C478.388 705.176 479.317 705.982 480.855 706.304L482.817 706.734C483.918 706.98 484.595 707.493 484.595 708.368C484.595 709.353 483.549 709.92 482.182 709.92C480.931 709.92 479.878 709.353 479.632 708.266L478.066 708.334C478.319 710.2 480.213 711.137 482.188 711.137ZM490.094 711.137C491.119 711.137 491.967 710.774 492.513 709.674L492.63 711H493.901V705.941C493.901 704.533 492.978 703.624 491.01 703.624C489.253 703.624 488.097 704.513 488.022 705.839H489.314C489.499 705.06 490.182 704.704 490.941 704.697C491.871 704.69 492.459 705.162 492.459 706.023V706.55L491.276 706.577C488.767 706.625 487.687 707.411 487.687 709.011C487.687 710.357 488.692 711.137 490.094 711.137ZM490.558 710.098C489.731 710.098 489.13 709.64 489.13 708.867C489.13 707.842 489.991 707.459 491.474 707.432L492.459 707.418V708.614C492.452 709.366 491.468 710.098 490.558 710.098ZM501.704 703.761H500.316L498.484 709.106H498.375L496.549 703.761H495.162L497.8 711H499.065L501.704 703.761ZM503.949 707.726H509.014V707.233C509.014 705.039 507.879 703.624 505.808 703.624C503.682 703.624 502.445 705.203 502.445 707.459C502.445 709.749 503.853 711.137 505.904 711.137C507.326 711.137 508.652 710.364 508.98 708.833H507.599C507.326 709.626 506.731 710.009 505.87 710.009C504.591 710.009 503.942 709.031 503.949 707.726ZM503.949 706.762C503.942 705.764 504.564 704.725 505.801 704.725C507.011 704.725 507.599 705.62 507.599 706.762H503.949Z" fill="white"/>
<circle cx="522" cy="575" r="2" fill="#979797"/>
<circle cx="529" cy="575" r="2" fill="#979797"/>
<circle cx="536" cy="575" r="2" fill="#979797"/>
<path d="M220.648 578.808C221.48 578.328 221.992 577.512 221.992 576.312C221.992 574.232 220.424 573 218.44 573H213.96V585H219.368C221.336 585 222.888 583.8 222.888 581.736C222.888 580.152 221.976 579.208 220.648 578.808ZM219.592 576.552C219.592 577.336 218.952 578.024 218.152 578.024H216.36V575.096H218.152C218.952 575.096 219.592 575.768 219.592 576.552ZM219.016 582.888H216.36V579.976H219.016C219.832 579.976 220.472 580.648 220.472 581.432C220.472 582.216 219.832 582.888 219.016 582.888ZM232.328 577H230.008V581.624C230.008 582.456 229.272 583.112 228.376 583.112C227.528 583.112 226.872 582.456 226.872 581.624V577H224.536V581.912C224.536 583.72 225.928 585.16 227.704 585.16C228.6 585.16 229.4 584.792 230.008 584.184V585C230.008 586.424 229.144 587.112 228.04 587.112C226.968 587.112 226.152 586.808 225.464 586.312V588.536C226.184 588.856 227 589.032 228.008 589.032C230.648 589.032 232.344 587.432 232.344 585L232.328 577Z" fill="#979797"/>
<path d="M51.2 583H54.56C57.872 583 60.56 580.312 60.56 577C60.56 573.688 57.872 571 54.56 571H51.2V583ZM52.656 581.704V572.296H54.56C57.088 572.296 59.104 574.376 59.104 577C59.104 579.624 57.088 581.704 54.56 581.704H52.656ZM73.2267 571L68.7147 577.688L64.2187 571H62.6667V583H64.1227V573.128L68.6987 580.056L73.3227 573.112V583H74.7627V571H73.2267ZM87.8183 571L83.3063 577.688L78.8103 571H77.2583V583H78.7143V573.128L83.2903 580.056L87.9143 573.112V583H89.3543V571H87.8183ZM92.09 579.336H97.69V578.344H92.09V579.336ZM106.346 576.824C107.274 576.328 107.882 575.416 107.882 574.2C107.882 572.296 106.394 571 104.538 571H100.442V583H105.482C107.322 583 108.794 581.72 108.794 579.816C108.794 578.232 107.754 577.176 106.346 576.824ZM106.426 574.328C106.426 575.464 105.514 576.392 104.378 576.392H101.898V572.296H104.378C105.514 572.296 106.426 573.208 106.426 574.328ZM105.29 581.704H101.898V577.608H105.29C106.426 577.608 107.338 578.536 107.338 579.64C107.338 580.776 106.426 581.704 105.29 581.704ZM114.846 583.16C117.134 583.16 118.926 582.088 118.926 579.784C118.926 577.528 116.942 576.76 115.198 576.072C113.806 575.544 112.558 575.032 112.558 573.848C112.558 572.648 113.598 572.104 114.814 572.104C116.302 572.104 117.326 572.68 117.87 573.496L118.846 572.504C118.046 571.544 116.638 570.84 114.782 570.84C112.766 570.84 111.086 571.928 111.086 573.96C111.086 575.896 112.83 576.552 114.494 577.176C116.014 577.752 117.47 578.312 117.454 579.864C117.438 581.208 116.318 581.768 114.894 581.768C113.246 581.768 111.854 580.968 111.374 579.768L110.318 580.84C111.15 582.2 112.878 583.16 114.846 583.16ZM127.747 571H119.731V572.28H123.011V583H124.467V572.28H127.747V571ZM129.66 579.336H135.26V578.344H129.66V579.336ZM142.267 583.16C144.747 583.16 146.587 580.52 146.587 577C146.587 573.464 144.747 570.84 142.267 570.84C139.787 570.84 137.931 573.464 137.931 577C137.931 580.52 139.787 583.16 142.267 583.16ZM142.283 581.896C140.635 581.896 139.355 579.784 139.355 577C139.355 574.216 140.635 572.088 142.283 572.088C143.915 572.088 145.179 574.216 145.179 577C145.179 579.784 143.915 581.896 142.283 581.896ZM152.625 583.16C154.993 583.16 156.721 581.432 156.721 579.048C156.721 576.744 155.105 575.032 152.897 575.032C151.953 575.032 151.057 575.336 150.433 575.88L150.913 572.28H156.001V571.032H149.793L149.121 576.68L150.321 577.24C150.897 576.632 151.729 576.296 152.545 576.296C154.113 576.296 155.313 577.496 155.313 579.096C155.313 580.664 154.129 581.848 152.561 581.848C151.521 581.848 150.529 581.352 149.921 580.52L149.009 581.48C149.841 582.52 151.185 583.16 152.625 583.16ZM164.112 576.248C165.008 575.768 165.6 574.888 165.6 573.848C165.6 572.168 164.192 570.84 162.432 570.84C160.64 570.84 159.248 572.168 159.248 573.848L160.608 573.88C160.608 572.92 161.424 572.152 162.432 572.152C163.488 572.152 164.32 572.952 164.32 573.976C164.32 575.048 163.488 575.896 162.432 575.896H162.416H161.536L161.552 577.048H162.496C163.824 577.048 164.848 578.088 164.848 579.432C164.848 580.76 163.824 581.832 162.496 581.832C161.2 581.832 160.16 580.856 160.16 579.656L158.752 579.672C158.752 581.608 160.416 583.16 162.496 583.16C164.592 583.16 166.24 581.512 166.24 579.448C166.24 578.008 165.376 576.824 164.112 576.248ZM176.885 578.872C176.789 576.728 175.029 575 172.853 574.968C172.581 574.968 172.293 574.984 172.053 575.032L175.317 571H173.653L169.477 576.344C168.805 577.144 168.389 578.136 168.437 579.208C168.533 581.48 170.485 583.224 172.837 583.144C175.125 583.032 176.965 581.16 176.885 578.872ZM172.805 581.912C171.205 582.008 169.925 580.792 169.845 579.208C169.749 577.624 170.901 576.264 172.501 576.184C174.101 576.104 175.397 577.304 175.493 578.904C175.589 580.488 174.421 581.816 172.805 581.912ZM179.4 583.16C179.912 583.16 180.344 582.728 180.344 582.216C180.344 581.72 179.912 581.288 179.4 581.288C178.888 581.288 178.472 581.72 178.472 582.216C178.472 582.728 178.888 583.16 179.4 583.16ZM182.398 583.16C182.91 583.16 183.342 582.728 183.342 582.216C183.342 581.72 182.91 581.288 182.398 581.288C181.886 581.288 181.47 581.72 181.47 582.216C181.47 582.728 181.886 583.16 182.398 583.16ZM185.396 583.16C185.908 583.16 186.34 582.728 186.34 582.216C186.34 581.72 185.908 581.288 185.396 581.288C184.884 581.288 184.468 581.72 184.468 582.216C184.468 582.728 184.884 583.16 185.396 583.16Z" fill="#212121"/>
<path d="M299.382 583H300.966L296.15 571H294.518L289.702 583H291.286L292.262 580.488H298.406L299.382 583ZM292.726 579.256L295.334 572.504L297.942 579.256H292.726ZM307.124 575L304.756 581.336L302.372 575H300.868L304.068 583H305.428L308.628 575H307.124ZM311.039 573.512C311.535 573.512 311.967 573.112 311.967 572.6C311.967 572.072 311.535 571.656 311.039 571.656C310.527 571.656 310.095 572.072 310.095 572.6C310.095 573.112 310.527 573.512 311.039 573.512ZM310.319 583H311.727V575H310.319V583ZM317.858 583.16C320.178 583.16 321.762 581.304 321.762 579C321.762 576.68 320.178 574.84 317.858 574.84C315.522 574.84 313.954 576.68 313.954 579C313.954 581.304 315.522 583.16 317.858 583.16ZM317.858 581.896C316.29 581.896 315.346 580.616 315.346 579C315.346 577.384 316.29 576.088 317.858 576.088C319.394 576.088 320.37 577.384 320.37 579C320.37 580.616 319.394 581.896 317.858 581.896ZM327.636 574.84C326.564 574.84 325.652 575.32 325.044 576.056L324.98 575H323.684V583H325.092V578.168C325.092 577.016 326.052 576.088 327.252 576.088C328.436 576.088 329.332 576.952 329.332 578.104V583H330.756V577.944C330.756 576.136 329.428 574.84 327.636 574.84ZM334.174 573.512C334.67 573.512 335.102 573.112 335.102 572.6C335.102 572.072 334.67 571.656 334.174 571.656C333.662 571.656 333.23 572.072 333.23 572.6C333.23 573.112 333.662 573.512 334.174 573.512ZM333.454 583H334.862V575H333.454V583ZM340.864 583.16C341.52 583.16 342.32 582.984 342.928 582.504V581.096C342.48 581.608 341.776 581.96 341.008 581.96C339.424 581.96 338.48 580.68 338.48 579C338.48 577.32 339.424 576.04 341.008 576.04C341.76 576.04 342.464 576.392 342.928 576.904V575.48C342.304 575 341.52 574.84 340.864 574.84C338.512 574.84 337.088 576.616 337.088 579C337.088 581.384 338.512 583.16 340.864 583.16ZM347.537 583.16C349.297 583.16 350.641 582.152 350.641 580.728C350.641 579.128 349.217 578.728 347.969 578.376C346.993 578.088 346.097 577.816 346.097 577C346.097 576.264 347.025 575.912 347.841 575.976C348.465 576.024 349.153 576.296 349.585 576.696L350.369 575.736C349.729 575.224 348.625 574.84 347.601 574.84C346.065 574.84 344.657 575.752 344.657 577.176C344.657 578.664 346.049 579.08 347.265 579.464C348.289 579.768 349.217 580.024 349.217 580.84C349.217 581.592 348.433 582.024 347.457 581.992C346.513 581.976 345.393 581.544 344.993 580.968L344.257 581.928C344.849 582.632 346.241 583.16 347.537 583.16Z" fill="black"/>
<path d="M269.199 588.11C275.113 588.11 279.899 583.268 279.899 577.305C279.899 571.342 275.113 566.5 269.199 566.5C263.285 566.5 258.5 571.342 258.5 577.305C258.5 583.268 263.285 588.11 269.199 588.11Z" fill="#C89C16" stroke="white"/>
<path d="M261.529 573.226C261.806 573.207 262.086 573.214 262.365 573.188C262.523 573.173 262.683 573.195 262.832 573.252C262.981 573.309 263.114 573.4 263.222 573.517C264.055 574.306 264.917 575.059 265.75 575.846C265.912 576.007 266.108 576.132 266.323 576.211C266.538 576.289 266.768 576.321 266.996 576.302C269.443 576.2 271.901 576.121 274.356 576.038C275.212 576.01 276.027 576.149 276.742 576.667C277.524 577.231 277.567 577.948 276.839 578.584C276.303 579.068 275.617 579.352 274.896 579.39C274.515 579.412 273.451 579.432 272.147 579.453L272.731 578.912L271.961 578.939L271.393 579.463L268.21 582.414L268.195 582.431C268.146 582.497 268.077 582.546 267.998 582.571C267.919 582.595 267.834 582.594 267.756 582.568V582.568C267.687 582.546 267.625 582.506 267.577 582.451C267.529 582.396 267.497 582.329 267.484 582.258L268.793 579.496L269.008 579.039L268.439 579.059L268.229 579.501L264.699 579.534C263.94 579.427 263.174 579.362 262.408 579.339C261.984 579.315 261.636 579.118 261.497 578.767C261.332 578.362 261.227 577.846 261.557 577.488C261.966 577.043 261.911 576.625 261.722 576.141C261.445 575.468 261.182 574.789 260.933 574.104C260.746 573.588 260.973 573.268 261.529 573.226Z" fill="white"/>
<line x1="523.955" y1="39.6827" x2="536.682" y2="26.9548" stroke="#212121" stroke-width="2" stroke-linecap="round"/>
<line x1="536.683" y1="39.3292" x2="523.955" y2="26.6013" stroke="#212121" stroke-width="2" stroke-linecap="round"/>
<path d="M51.2 430H54.56C57.872 430 60.56 427.312 60.56 424C60.56 420.688 57.872 418 54.56 418H51.2V430ZM52.656 428.704V419.296H54.56C57.088 419.296 59.104 421.376 59.104 424C59.104 426.624 57.088 428.704 54.56 428.704H52.656ZM73.2267 418L68.7147 424.688L64.2187 418H62.6667V430H64.1227V420.128L68.6987 427.056L73.3227 420.112V430H74.7627V418H73.2267ZM87.8183 418L83.3063 424.688L78.8103 418H77.2583V430H78.7143V420.128L83.2903 427.056L87.9143 420.112V430H89.3543V418H87.8183ZM92.09 426.336H97.69V425.344H92.09V426.336ZM105.914 430.16C107.13 430.16 108.266 429.744 109.178 429.04V427.28C108.282 428.272 107.162 428.768 105.914 428.768C103.242 428.768 101.434 426.672 101.434 424C101.434 421.328 103.242 419.232 105.914 419.232C107.146 419.232 108.266 419.728 109.178 420.72V418.96C108.266 418.256 107.13 417.84 105.914 417.84C102.506 417.84 100.058 420.592 100.058 424C100.058 427.408 102.506 430.16 105.914 430.16ZM115.221 430.16C117.509 430.16 119.301 429.088 119.301 426.784C119.301 424.528 117.317 423.76 115.573 423.072C114.181 422.544 112.933 422.032 112.933 420.848C112.933 419.648 113.973 419.104 115.189 419.104C116.677 419.104 117.701 419.68 118.245 420.496L119.221 419.504C118.421 418.544 117.013 417.84 115.157 417.84C113.141 417.84 111.461 418.928 111.461 420.96C111.461 422.896 113.205 423.552 114.869 424.176C116.389 424.752 117.845 425.312 117.829 426.864C117.813 428.208 116.693 428.768 115.269 428.768C113.621 428.768 112.229 427.968 111.749 426.768L110.693 427.84C111.525 429.2 113.253 430.16 115.221 430.16ZM121.615 426.336H127.215V425.344H121.615V426.336ZM134.223 430.16C136.703 430.16 138.543 427.52 138.543 424C138.543 420.464 136.703 417.84 134.223 417.84C131.743 417.84 129.887 420.464 129.887 424C129.887 427.52 131.743 430.16 134.223 430.16ZM134.239 428.896C132.591 428.896 131.311 426.784 131.311 424C131.311 421.216 132.591 419.088 134.239 419.088C135.871 419.088 137.135 421.216 137.135 424C137.135 426.784 135.871 428.896 134.239 428.896ZM148.485 426.208H147.237V418H145.493L140.053 426.56V427.472H145.829V430H147.237V427.472H148.485V426.208ZM141.685 426.208L145.829 419.488V426.208H141.685ZM155 430.16C157.48 430.16 159.32 427.52 159.32 424C159.32 420.464 157.48 417.84 155 417.84C152.52 417.84 150.664 420.464 150.664 424C150.664 427.52 152.52 430.16 155 430.16ZM155.016 428.896C153.368 428.896 152.088 426.784 152.088 424C152.088 421.216 153.368 419.088 155.016 419.088C156.648 419.088 157.912 421.216 157.912 424C157.912 426.784 156.648 428.896 155.016 428.896ZM161.998 430.16C162.51 430.16 162.942 429.728 162.942 429.216C162.942 428.72 162.51 428.288 161.998 428.288C161.486 428.288 161.07 428.72 161.07 429.216C161.07 429.728 161.486 430.16 161.998 430.16ZM164.996 430.16C165.508 430.16 165.94 429.728 165.94 429.216C165.94 428.72 165.508 428.288 164.996 428.288C164.484 428.288 164.068 428.72 164.068 429.216C164.068 429.728 164.484 430.16 164.996 430.16ZM167.993 430.16C168.505 430.16 168.937 429.728 168.937 429.216C168.937 428.72 168.505 428.288 167.993 428.288C167.481 428.288 167.065 428.72 167.065 429.216C167.065 429.728 167.481 430.16 167.993 430.16Z" fill="black"/>
<path d="M296.672 432.16C297.888 432.16 299.024 431.744 299.936 431.04V429.28C299.04 430.272 297.92 430.768 296.672 430.768C294 430.768 292.192 428.672 292.192 426C292.192 423.328 294 421.232 296.672 421.232C297.904 421.232 299.024 421.728 299.936 422.72V420.96C299.024 420.256 297.888 419.84 296.672 419.84C293.264 419.84 290.816 422.592 290.816 426C290.816 429.408 293.264 432.16 296.672 432.16ZM305.042 432.16C307.362 432.16 308.946 430.304 308.946 428C308.946 425.68 307.362 423.84 305.042 423.84C302.706 423.84 301.138 425.68 301.138 428C301.138 430.304 302.706 432.16 305.042 432.16ZM305.042 430.896C303.474 430.896 302.53 429.616 302.53 428C302.53 426.384 303.474 425.088 305.042 425.088C306.578 425.088 307.554 426.384 307.554 428C307.554 429.616 306.578 430.896 305.042 430.896ZM314.82 423.84C313.748 423.84 312.836 424.32 312.228 425.056L312.164 424H310.868V432H312.276V427.168C312.276 426.016 313.236 425.088 314.436 425.088C315.62 425.088 316.516 425.952 316.516 427.104V432H317.94V426.944C317.94 425.136 316.612 423.84 314.82 423.84ZM323.746 430.576C323.506 430.832 323.234 430.944 322.882 430.944C322.226 430.944 321.826 430.544 321.826 429.76V425.104H323.986V424H321.81V421.28H320.402V424H319.362V425.104H320.402V429.76C320.402 431.184 321.362 432.16 322.85 432.16C323.586 432.16 324.146 431.936 324.53 431.536L323.746 430.576ZM329.467 423.84C328.539 423.84 327.675 424.384 327.099 425.216L327.035 424H325.739V432H327.147V427.52C327.147 426.096 328.235 425.088 329.403 425.088C329.979 425.088 330.347 425.248 330.523 425.344L331.211 424.32C330.763 423.984 330.315 423.84 329.467 423.84ZM335.44 432.16C337.76 432.16 339.344 430.304 339.344 428C339.344 425.68 337.76 423.84 335.44 423.84C333.104 423.84 331.536 425.68 331.536 428C331.536 430.304 333.104 432.16 335.44 432.16ZM335.44 430.896C333.872 430.896 332.928 429.616 332.928 428C332.928 426.384 333.872 425.088 335.44 425.088C336.976 425.088 337.952 426.384 337.952 428C337.952 429.616 336.976 430.896 335.44 430.896ZM343.778 432.16C344.498 432.16 345.074 431.936 345.458 431.536L344.674 430.576C344.434 430.832 344.162 430.944 343.81 430.944C343.154 430.944 342.754 430.544 342.754 429.76L342.738 420H341.33V429.76C341.33 431.184 342.274 432.16 343.778 432.16ZM354.84 432.16C357.128 432.16 358.92 431.088 358.92 428.784C358.92 426.528 356.936 425.76 355.192 425.072C353.8 424.544 352.552 424.032 352.552 422.848C352.552 421.648 353.592 421.104 354.808 421.104C356.296 421.104 357.32 421.68 357.864 422.496L358.84 421.504C358.04 420.544 356.632 419.84 354.776 419.84C352.76 419.84 351.08 420.928 351.08 422.96C351.08 424.896 352.824 425.552 354.488 426.176C356.008 426.752 357.464 427.312 357.448 428.864C357.432 430.208 356.312 430.768 354.888 430.768C353.24 430.768 351.848 429.968 351.368 428.768L350.312 429.84C351.144 431.2 352.872 432.16 354.84 432.16ZM368.098 424H366.674V428.832C366.674 429.984 365.714 430.896 364.53 430.896C363.362 430.896 362.434 429.984 362.434 428.832V424H361.026V428.976C361.026 430.736 362.402 432.16 364.178 432.16C365.186 432.16 366.082 431.712 366.674 430.976V432.208C366.674 433.824 365.938 434.832 364.354 434.832C363.106 434.832 362.162 434.4 361.458 433.792V435.328C362.194 435.808 363.074 436.096 364.242 436.096C366.818 436.096 368.098 434.4 368.098 432.208V424ZM373.257 432.16C375.017 432.16 376.361 431.152 376.361 429.728C376.361 428.128 374.937 427.728 373.689 427.376C372.713 427.088 371.817 426.816 371.817 426C371.817 425.264 372.745 424.912 373.561 424.976C374.185 425.024 374.873 425.296 375.305 425.696L376.089 424.736C375.449 424.224 374.345 423.84 373.321 423.84C371.785 423.84 370.377 424.752 370.377 426.176C370.377 427.664 371.769 428.08 372.985 428.464C374.009 428.768 374.937 429.024 374.937 429.84C374.937 430.592 374.153 431.024 373.177 430.992C372.233 430.976 371.113 430.544 370.713 429.968L369.977 430.928C370.569 431.632 371.961 432.16 373.257 432.16ZM381.807 430.576C381.567 430.832 381.295 430.944 380.943 430.944C380.287 430.944 379.887 430.544 379.887 429.76V425.104H382.047V424H379.871V421.28H378.463V424H377.423V425.104H378.463V429.76C378.463 431.184 379.423 432.16 380.911 432.16C381.647 432.16 382.207 431.936 382.591 431.536L381.807 430.576ZM390.805 428C390.805 425.568 389.461 423.84 387.173 423.84C384.821 423.84 383.365 425.632 383.365 428.016C383.365 430.4 384.805 432.16 387.173 432.16C388.677 432.16 389.765 431.472 390.421 430.288L389.429 429.6C388.789 430.592 388.181 430.928 387.221 430.928C385.733 430.928 384.885 429.936 384.741 428.464H390.789C390.805 428.304 390.805 428.144 390.805 428ZM387.205 425.056C388.565 425.056 389.381 425.952 389.525 427.36H384.773C384.981 425.984 385.813 425.056 387.205 425.056ZM401.839 423.84C400.671 423.84 399.679 424.416 399.087 425.296C398.591 424.4 397.663 423.84 396.527 423.84C395.503 423.84 394.655 424.288 394.095 424.976L394.031 424H392.735V432H394.143V427.088C394.143 425.984 395.039 425.088 396.159 425.088C397.247 425.088 398.063 425.92 398.063 427.008V432H399.487V427.088C399.487 425.984 400.351 425.088 401.487 425.088C402.575 425.088 403.391 425.92 403.391 427.008V432H404.815V426.848C404.815 425.104 403.567 423.84 401.839 423.84ZM409.921 432.16C411.681 432.16 413.025 431.152 413.025 429.728C413.025 428.128 411.601 427.728 410.353 427.376C409.377 427.088 408.481 426.816 408.481 426C408.481 425.264 409.409 424.912 410.225 424.976C410.849 425.024 411.537 425.296 411.969 425.696L412.753 424.736C412.113 424.224 411.009 423.84 409.985 423.84C408.449 423.84 407.041 424.752 407.041 426.176C407.041 427.664 408.433 428.08 409.649 428.464C410.673 428.768 411.601 429.024 411.601 429.84C411.601 430.592 410.817 431.024 409.841 430.992C408.897 430.976 407.777 430.544 407.377 429.968L406.641 430.928C407.233 431.632 408.625 432.16 409.921 432.16Z" fill="black"/>
<path d="M205.648 425.808C206.48 425.328 206.992 424.512 206.992 423.312C206.992 421.232 205.424 420 203.44 420H198.96V432H204.368C206.336 432 207.888 430.8 207.888 428.736C207.888 427.152 206.976 426.208 205.648 425.808ZM204.592 423.552C204.592 424.336 203.952 425.024 203.152 425.024H201.36V422.096H203.152C203.952 422.096 204.592 422.768 204.592 423.552ZM204.016 429.888H201.36V426.976H204.016C204.832 426.976 205.472 427.648 205.472 428.432C205.472 429.216 204.832 429.888 204.016 429.888ZM217.328 424H215.008V428.624C215.008 429.456 214.272 430.112 213.376 430.112C212.528 430.112 211.872 429.456 211.872 428.624V424H209.536V428.912C209.536 430.72 210.928 432.16 212.704 432.16C213.6 432.16 214.4 431.792 215.008 431.184V432C215.008 433.424 214.144 434.112 213.04 434.112C211.968 434.112 211.152 433.808 210.464 433.312V435.536C211.184 435.856 212 436.032 213.008 436.032C215.648 436.032 217.344 434.432 217.344 432L217.328 424Z" fill="#979797"/>
<path d="M269.307 437.11C275.275 437.11 280.114 432.273 280.114 426.305C280.114 420.337 275.275 415.5 269.307 415.5C263.339 415.5 258.5 420.337 258.5 426.305C258.5 432.273 263.339 437.11 269.307 437.11Z" fill="#3E5FC2" stroke="white"/>
<path fill-rule="evenodd" clip-rule="evenodd" d="M270.632 431.704C270.463 432.289 270.265 432.746 270.049 433.076C269.455 433.159 268.851 433.158 268.257 433.076C268.041 432.746 267.842 432.289 267.673 431.704C267.327 431.602 266.996 431.466 266.684 431.299C266.147 431.594 265.679 431.778 265.291 431.861C264.812 431.503 264.385 431.081 264.023 430.606C264.106 430.222 264.293 429.76 264.591 429.228C264.422 428.92 264.284 428.591 264.181 428.249C263.59 428.082 263.128 427.885 262.795 427.672C262.712 427.085 262.712 426.486 262.795 425.898C263.129 425.685 263.591 425.488 264.181 425.321C264.284 424.979 264.422 424.651 264.591 424.342C264.293 423.811 264.106 423.349 264.023 422.964C264.384 422.49 264.812 422.067 265.291 421.71C265.679 421.792 266.147 421.976 266.684 422.272C266.996 422.104 267.327 421.968 267.673 421.866C267.842 421.281 268.041 420.824 268.256 420.494C268.85 420.412 269.455 420.412 270.049 420.494C270.264 420.824 270.463 421.282 270.632 421.866C270.978 421.968 271.31 422.104 271.622 422.272C272.159 421.976 272.626 421.792 273.014 421.71C273.493 422.067 273.921 422.49 274.282 422.964C274.199 423.348 274.012 423.811 273.714 424.342C273.883 424.65 274.021 424.979 274.124 425.321C274.715 425.488 275.177 425.685 275.51 425.898C275.593 426.486 275.593 427.084 275.51 427.672C275.177 427.885 274.715 428.082 274.124 428.249C274.021 428.591 273.883 428.919 273.714 429.228C274.012 429.759 274.199 430.221 274.282 430.606C273.921 431.08 273.493 431.503 273.014 431.861C272.626 431.778 272.158 431.594 271.622 431.298C271.31 431.466 270.978 431.602 270.632 431.704V431.704ZM270.786 424.934C272.491 426.409 271.46 429.242 269.153 429.242C267.782 429.242 266.67 428.142 266.67 426.785C266.67 424.655 269.207 423.569 270.786 424.934V424.934Z" fill="white"/>
<defs>
<filter id="filter0_d" x="0" y="0" width="569" height="766" filterUnits="userSpaceOnUse" color-interpolation-filters="sRGB">
<feFlood flood-opacity="0" result="BackgroundImageFix"/>
<feColorMatrix in="SourceAlpha" type="matrix" values="0 0 0 0 0 0 0 0 0 0 0 0 0 0 0 0 0 0 127 0"/>
<feOffset dy="4"/>
<feGaussianBlur stdDeviation="7.5"/>
<feColorMatrix type="matrix" values="0 0 0 0 0 0 0 0 0 0 0 0 0 0 0 0 0 0 0.1 0"/>
<feBlend mode="normal" in2="BackgroundImageFix" result="effect1_dropShadow"/>
<feBlend mode="normal" in="SourceGraphic" in2="effect1_dropShadow" result="shape"/>
</filter>
</defs>
</svg>
